<svg width="20" height="20" viewBox="0 0 20 20" fill="none" xmlns="http://www.w3.org/2000/svg">
<g clip-path="url(#clip0_2160_34818)">
<path d="M10 20C15.5228 20 20 15.5228 20 10C20 4.47715 15.5228 0 10 0C4.47715 0 0 4.47715 0 10C0 15.5228 4.47715 20 10 20Z" fill="#E7973D"/>
<path d="M12.7485 13.5902C11.7862 14.9143 10.4747 14.7012 8.87372 13.8758L8.01695 15.3598L7.08948 14.8243L7.94624 13.3404C7.72365 13.2118 7.46396 13.0619 7.20427 12.912L6.34751 14.3959L5.42004 13.8605L6.2768 12.3765C6.05421 12.248 5.83161 12.1195 5.60902 11.991L4.38476 11.2841L4.92444 10.6064L5.15431 10.2939L7.78832 11.8147C7.82542 11.8361 7.89962 11.8789 7.93672 11.9004C7.97381 11.9218 8.04801 11.9646 8.08511 11.986C8.90129 12.4573 10.3696 13.2555 10.9265 12.2909C11.1406 11.9199 11.0837 11.5903 10.9096 11.2919C11.3235 11.4319 11.7216 11.5134 12.067 11.5149C12.2582 11.5264 12.4709 11.5008 12.7049 11.4381C12.7635 11.4224 12.822 11.4067 12.8805 11.391C13.3027 12.0305 13.3524 12.8012 12.7485 13.5902Z" fill="white"/>
<path d="M14.1416 9.89565C14.1844 9.82145 14.2116 9.68873 14.2544 9.61454C14.5245 8.63275 13.8269 7.7848 12.7938 7.08946L13.6506 5.6055L12.7231 5.07003L11.8878 6.51688C11.6281 6.36695 11.4055 6.23843 11.1458 6.0885L11.9812 4.64165L11.0537 4.10617L10.1969 5.59013C10.0485 5.50445 9.90013 5.41877 9.78883 5.35452C9.75173 5.3331 9.67754 5.29026 9.64044 5.26884L8.37908 4.54059L7.82218 5.50516C7.82218 5.50516 8.11898 5.67651 8.30447 5.78361C8.41577 5.84787 8.48996 5.8907 8.48996 5.8907C8.86095 6.1049 8.84373 6.39175 8.77374 6.59866L7.80988 8.2681L6.46048 10.6053L8.05573 11.5263L9.01959 9.8569C9.09379 9.89974 9.44336 10.151 9.92564 10.4295C10.074 10.5152 10.1853 10.5794 10.3337 10.6651C10.8745 10.9279 11.5324 11.1593 12.1275 11.1566C12.2816 11.1467 12.4729 11.1581 12.6484 11.1111C13.2493 11.0128 13.9102 10.5535 14.1416 9.89565ZM9.92031 9.23924C9.77192 9.15356 9.62352 9.06789 9.51223 9.00363L10.5403 7.22289C10.6516 7.28714 10.8371 7.39424 11.0597 7.52275C11.7646 7.92971 12.6649 8.5979 12.1937 9.41408C11.7653 10.1561 10.5881 9.62478 9.92031 9.23924Z" fill="white"/>
</g>
<defs>
<clipPath id="clip0_2160_34818">
<rect width="20" height="20" fill="white"/>
</clipPath>
</defs>
</svg>
