<svg width="20" height="20" viewBox="0 0 20 20" fill="none" xmlns="http://www.w3.org/2000/svg">
<g clip-path="url(#clip0_2412_821)">
<path d="M10 20C15.5228 20 20 15.5228 20 10C20 4.47715 15.5228 0 10 0C4.47715 0 0 4.47715 0 10C0 15.5228 4.47715 20 10 20Z" fill="#988430"/>
<path d="M9.99999 19.6797C15.3459 19.6797 19.6797 15.3459 19.6797 9.99999C19.6797 4.65405 15.3459 0.320312 9.99999 0.320312C4.65405 0.320312 0.320312 4.65405 0.320312 9.99999C0.320312 15.3459 4.65405 19.6797 9.99999 19.6797Z" fill="#7A6A2A"/>
<path d="M9.99917 19.4759C15.2325 19.4759 19.4749 15.2335 19.4749 10.0001C19.4749 4.76684 15.2325 0.524414 9.99917 0.524414C4.76587 0.524414 0.523438 4.76684 0.523438 10.0001C0.523438 15.2335 4.76587 19.4759 9.99917 19.4759Z" fill="#BA9F33"/>
<path fill-rule="evenodd" clip-rule="evenodd" d="M4.37268 8.9319C4.31604 8.88016 4.2562 8.82832 4.20116 8.77659C4.14612 8.72486 4.08959 8.67302 4.03295 8.62128L3.86463 8.46128C3.83711 8.43376 3.80799 8.40955 3.78047 8.38192C3.75295 8.35771 3.72063 8.33019 3.69311 8.30587C3.46975 8.09392 3.24511 7.88198 3.02484 7.66992C3.253 7.87867 3.47636 8.08592 3.70452 8.29776L3.78378 8.37712C3.8113 8.40454 3.84042 8.42885 3.86794 8.45637L4.03615 8.61168C4.09279 8.66341 4.14783 8.71525 4.20447 8.77168C4.26111 8.82811 4.31615 8.88005 4.37279 8.93168L4.37268 8.9319ZM1.40831 8.8999C1.40831 8.8999 2.22058 8.98395 2.61706 9.04059C2.98431 9.09243 4.13322 9.26875 4.13322 9.26875L1.40831 8.8999ZM1.40831 8.8999C1.63647 8.91931 1.86463 8.94352 2.09279 8.96784C2.20927 8.97915 2.32095 8.99206 2.43263 9.00336L2.60404 9.02288C2.66068 9.03088 2.71572 9.03899 2.77236 9.0471L3.45204 9.15547L3.79178 9.21211C3.90346 9.23152 4.01514 9.25264 4.13162 9.27206C4.01994 9.26075 3.90346 9.24453 3.79178 9.22832L3.45204 9.17979L2.77236 9.07952C2.71572 9.07141 2.66068 9.06 2.60404 9.052L2.43252 9.03227C2.32084 9.02096 2.20436 9.00475 2.09268 8.99174C1.86452 8.96432 1.63636 8.93509 1.4082 8.89957L1.40831 8.8999ZM4.05236 9.48037C4.05236 9.48037 3.18506 9.70054 2.89215 9.7847C2.60415 9.86395 1.73194 10.1293 1.73194 10.1293L4.05226 9.48048L4.05236 9.48037Z" fill="#CFB66C"/>
<path fill-rule="evenodd" clip-rule="evenodd" d="M4.05209 9.48047C3.85956 9.53711 3.66809 9.59215 3.47279 9.64399L2.89348 9.7993C2.70095 9.85594 2.50948 9.91098 2.31748 9.96762L2.02948 10.0469C1.93401 10.0744 1.83695 10.0986 1.73828 10.1262C1.83364 10.0942 1.93081 10.0615 2.02628 10.034L2.31428 9.9418C2.50681 9.88186 2.69828 9.82522 2.89028 9.76538C3.08601 9.71684 3.27865 9.665 3.47439 9.61807C3.66041 9.57114 3.85625 9.52431 4.05209 9.48058V9.48047ZM1.85316 10.6634C1.94852 10.6278 3.04889 10.1149 3.30457 9.99514C3.43257 9.93519 3.80463 9.80314 3.80463 9.80314L1.85316 10.6634Z" fill="#CFB66C"/>
<path fill-rule="evenodd" clip-rule="evenodd" d="M1.85362 10.6636C1.93768 10.6316 2.01704 10.5924 2.09789 10.5552L2.33736 10.4435L2.818 10.2122C2.978 10.1361 3.13352 10.0522 3.29853 9.98071C3.38269 9.94519 3.46685 9.91607 3.5509 9.88855L3.6789 9.84813C3.72253 9.83682 3.76306 9.82381 3.8069 9.8125C3.6469 9.88855 3.47848 9.9533 3.31826 10.0276C3.15826 10.107 2.99464 10.1718 2.82952 10.2429L2.34088 10.458C2.17682 10.5245 2.01682 10.5956 1.85352 10.6636H1.85362ZM1.96029 11.1116C1.96029 11.1116 2.95698 10.5275 3.30002 10.3398C3.47965 10.2395 4.06056 9.95138 4.06056 9.95138L1.96029 11.1116Z" fill="#CFB66C"/>
<path fill-rule="evenodd" clip-rule="evenodd" d="M1.95898 11.1117C2.1272 11.0081 2.29872 10.9029 2.47024 10.7961L2.72624 10.6407C2.8136 10.589 2.89776 10.5405 2.98682 10.4887C3.07418 10.4369 3.15834 10.3851 3.2473 10.3366C3.28965 10.3105 3.33403 10.2877 3.38 10.2687L3.51589 10.2007C3.69552 10.1134 3.87514 10.0243 4.06448 9.94824C3.89296 10.0567 3.71653 10.149 3.54021 10.2443C3.45285 10.2929 3.36378 10.3366 3.27642 10.3851C3.18906 10.4337 3.1049 10.4855 3.01584 10.5325C2.92848 10.5842 2.84432 10.6327 2.75536 10.6797L2.49157 10.8237L1.9592 11.1117H1.95898ZM4.05114 10.0792C4.05114 10.0792 3.43141 10.555 3.23077 10.7071C3.03013 10.8592 2.43952 11.2864 2.43952 11.2864L4.05114 10.0792V10.0792Z" fill="#CFB66C"/>
<path fill-rule="evenodd" clip-rule="evenodd" d="M7.60814 13.9152L7.29102 13.3148L7.47544 12.564L8.79096 12.056L8.23107 10.9072L8.50776 9.74695L9.02723 8.70801L10.6325 8.45564L11.812 7.33105L14.359 7.52359L14.8589 10.2469L13.8961 13.6757L13.3477 15.4508L11.1243 15.535L10.092 14.8198L8.88323 14.3148L7.60814 13.9152Z" fill="#E2CC85"/>
<path fill-rule="evenodd" clip-rule="evenodd" d="M11.509 13.8962C11.509 13.8962 11.2015 14.037 10.677 14.0045C10.5252 13.8007 9.46216 13.7052 9.46216 13.7052C9.46216 13.7052 9.32947 13.6648 9.0948 13.7619C8.85864 13.8579 8.63528 13.846 8.42653 13.8978C8.21779 13.9495 8.01053 13.6777 7.85053 13.6211C7.69053 13.5612 7.47837 13.4172 7.47837 13.4172L7.03037 13.3735L6.13075 12.9932L4.70152 11.5693L4.31315 12.1773L4.19336 12.9298L4.62547 13.8214L5.78888 14.8812L8.05747 15.4572L9.40211 15.0611L11.0866 14.3491L11.509 13.8961V13.8962Z" fill="#F1D789"/>
<path fill-rule="evenodd" clip-rule="evenodd" d="M3.44798 8.86449L3.73598 7.99238L4.07913 7.42918L5.18419 7.33691L4.85246 8.30459L3.92862 9.94865L4.31209 11.4163L3.63251 11.756L3.42366 11.4357L3.25545 10.7011L3.24414 9.87579L3.44798 8.86449Z" fill="#F4ECB4"/>
<path fill-rule="evenodd" clip-rule="evenodd" d="M4.68695 13.8368L4.47501 13.5407C4.47501 13.5407 4.41837 13.3999 4.45079 13.2769C4.48279 13.1523 4.47821 13.1442 4.4621 13.0973C4.446 13.0504 4.31 12.8886 4.3181 12.7494C4.3261 12.6086 4.30679 12.5616 4.41026 12.45C4.51863 12.3417 4.48631 12.1539 4.48631 12.1539L4.62711 12.2413L4.65911 12.1928C4.65911 12.1928 4.71085 12.2332 4.71085 12.2963C4.72215 12.209 4.67522 11.8044 4.78199 11.7122C4.88877 11.6201 5.0781 12.1442 5.0781 12.1442L4.96162 11.3837L4.66221 10.6039L4.12983 9.89186L4.09783 9.10701V9.03906C4.09783 9.03906 3.85346 9.41453 3.78551 9.71106C3.73698 9.9149 3.85346 10.1625 3.82925 10.4554C3.80973 10.7467 3.78552 10.724 3.85666 10.8394C3.92781 10.9548 4.10104 11.1921 4.03309 11.3636C3.97325 11.511 3.7693 11.4074 3.7693 11.4074C3.7693 11.4074 3.72887 11.5271 3.67383 11.5708C3.65442 11.4996 3.63341 11.4543 3.59458 11.4108C3.59128 11.4383 3.58328 11.4755 3.58328 11.4755C3.58328 11.4755 3.54765 11.3639 3.51202 11.2231C3.4636 11.0354 3.41175 10.7879 3.36482 10.6552C3.34541 10.7312 3.29688 10.9626 3.29688 10.9626L3.3244 11.3186L3.45709 11.8073L3.58509 12.1273L3.70968 12.5188L3.81794 12.7819L3.9053 12.9825L3.98136 13.434L4.34861 13.8223L4.54445 13.9098L4.68674 13.8369L4.68695 13.8368Z" fill="#F3E19D"/>
<path fill-rule="evenodd" clip-rule="evenodd" d="M3.64121 8.15199C3.64121 8.15199 3.37742 8.59999 3.30147 9.05162C3.22553 9.50324 3.15747 9.98047 3.20547 10.5953C3.25401 11.2151 3.34627 11.5953 3.42073 11.8672C3.54873 12.3187 3.88025 12.9466 3.88025 12.9466L3.89155 12.9222C3.83583 12.8166 3.79135 12.7054 3.75886 12.5905C3.71513 12.419 3.69891 12.2151 3.65849 12.1229C3.62286 12.0307 3.56302 11.9513 3.5339 11.8381C3.50638 11.7297 3.5019 11.5582 3.41742 11.4304C3.38179 11.3786 3.33806 11.2427 3.32515 11.1068C3.30894 10.9028 3.33326 10.6747 3.31385 10.487C3.27822 10.1747 3.25401 9.96276 3.28633 9.79924C3.31865 9.63572 3.48707 9.17151 3.59065 8.80255C3.65859 8.56628 3.61806 8.36724 3.74265 8.1617C3.86723 7.95786 3.94339 7.77823 3.97081 7.65364C4.00281 7.54036 3.64078 8.15199 3.64078 8.15199H3.64121Z" fill="#F2E8B0"/>
<path fill-rule="evenodd" clip-rule="evenodd" d="M4.89107 7.97266C4.89107 7.97266 4.75517 8.01319 4.69043 8.08434C4.62568 8.15228 4.59816 8.20892 4.5108 8.3238C4.42344 8.43868 4.41853 8.53255 4.34728 8.67655C4.27613 8.81735 4.11912 9.0293 4.09971 9.10535C4.08029 9.1814 4.04797 9.53735 4.00755 9.70567C3.97192 9.87399 4.04797 10.0811 4.04797 10.0811L4.14013 10.0616C4.14013 10.0616 4.14013 10.1814 4.2324 10.2624C4.32456 10.3416 4.34077 9.99367 4.34077 9.99367L4.68541 8.83026L5.20477 8.47751L5.26141 8.19271L4.89085 7.97266H4.89107Z" fill="#F5EEC0"/>
<path fill-rule="evenodd" clip-rule="evenodd" d="M5.14404 8.49976C5.14404 8.49976 4.89967 8.51587 4.77999 8.60334C4.73145 8.63886 4.71204 8.66798 4.66031 8.71171C4.56484 8.79096 4.46767 8.86382 4.42084 8.96771C4.369 9.07118 4.31236 9.22819 4.27353 9.5243C4.25732 9.64888 4.25732 9.76376 4.24601 9.86414C4.2298 10 4.20559 10.1084 4.21849 10.1841C4.23471 10.3394 4.39492 10.4204 4.41049 10.5967L4.74223 10.4285L5.05455 9.19704L5.71801 8.78104L5.34255 8.36035L5.14361 8.49902L5.14404 8.49976Z" fill="#E6DB9D"/>
<path fill-rule="evenodd" clip-rule="evenodd" d="M3.39268 16.7924C3.39407 16.7802 3.39546 16.768 3.39684 16.7556C3.44527 16.3396 3.45348 16.0243 3.489 15.8268C3.54074 15.5469 3.57636 15.4428 3.56826 15.3381C3.55695 15.1699 3.54404 15.0469 3.56026 14.9174C3.58447 14.7459 3.75279 14.542 3.74799 14.4012C3.74468 14.2895 3.68804 14.2168 3.63951 14.1488C3.59098 14.0809 3.55215 14.0243 3.55215 14.0243C3.55215 14.0243 3.88388 13.7961 3.88068 12.877C3.88746 12.8789 3.89398 12.8816 3.9001 12.8851L4.06351 13.3494L4.17519 13.4853L4.60399 14.2846L5.15578 14.8203L5.97124 15.3688L6.4826 15.9253L6.53434 17.4091L5.86607 18.2764L5.75663 18.4746C4.88716 18.0381 4.08986 17.4707 3.39258 16.7923L3.39268 16.7924Z" fill="#E5CB7A"/>
<path fill-rule="evenodd" clip-rule="evenodd" d="M5.43555 18.2124C5.43555 18.2124 5.44685 18.028 5.59896 17.9082C5.62328 17.9487 5.63939 17.9876 5.63459 18.0166C5.66211 17.9682 5.85464 17.6575 6.28995 17.5765C6.72525 17.4972 6.83043 17.1801 6.83043 17.1801L7.75427 16.3403L8.81091 15.3679L10.0957 14.9163L10.6961 14.769C10.6961 14.769 10.7074 14.8128 10.6848 14.9098C10.7964 14.9018 11.044 14.8452 11.3013 14.7545C11.4048 14.7141 11.502 14.6979 11.5537 14.7513C11.6298 14.8225 11.6411 14.9908 11.6459 15.0911C11.7705 15.0635 11.9145 14.9439 12.0299 14.9552C12.2144 14.9746 12.3778 15.1914 12.5656 15.1914C12.8131 15.1914 12.9247 15.0393 13.0979 14.9195C13.2015 14.8484 13.3503 14.7595 13.4345 14.6995C13.6351 14.5522 15.7581 13.9033 15.7581 13.9033L16.5024 13.9519L16.6222 14.7512L16.5582 16.8408C16.5503 16.8484 16.5424 16.8563 16.5344 16.8639L13.1501 18.6314L8.45891 19.3506C7.40806 19.1789 6.39398 18.8301 5.45987 18.319L5.43587 18.2123L5.43555 18.2124Z" fill="#D8C173"/>
<path fill-rule="evenodd" clip-rule="evenodd" d="M3.67773 17.0584C3.7444 16.919 3.80435 16.8024 3.81491 16.7607C3.82323 16.8448 3.83848 17.0292 3.8692 17.2253C3.8047 17.1704 3.74088 17.1148 3.67773 17.0583V17.0584Z" fill="#F1D789"/>
<path fill-rule="evenodd" clip-rule="evenodd" d="M7.10426 19.0246L7.71098 18.8558L7.76272 18.872C7.76272 18.872 7.79024 18.8883 7.79024 18.9432C7.86629 18.8996 7.93104 18.9076 7.97797 18.8786C8.00218 18.9303 8.0264 19.1018 8.13328 19.1228C8.24485 19.1471 8.36464 19.0743 8.48602 18.9821C8.6057 18.8867 8.74202 18.7669 8.84517 18.7183C8.88301 18.7879 8.91653 18.8598 8.94554 18.9335C9.08144 18.8251 9.3177 18.385 9.65424 18.393C9.75151 18.1631 9.91401 17.9668 10.1216 17.8283C10.434 17.6164 10.6297 17.6002 10.8741 17.6196C10.9711 17.4935 11.0907 17.3865 11.2268 17.304C11.2672 17.3203 11.3789 17.3882 11.5181 17.3235C11.6589 17.2588 11.8174 17.0079 12.0262 16.9756C12.1387 16.9601 12.253 16.9842 12.3498 17.0436C12.3498 17.0436 12.9578 16.4399 13.3773 16.2393C13.3611 16.1908 13.3288 16.0079 13.8206 15.6034C13.8482 15.6277 13.8287 15.6956 13.8482 15.6994C13.8562 15.6994 13.9762 15.6476 14.128 15.531C14.3158 15.3903 14.5406 15.243 14.6765 15.2026C14.9325 15.1266 15.2041 15.2819 15.2041 15.2819C15.2272 15.2657 15.2529 15.2536 15.2802 15.2462C15.3448 15.2349 15.3917 15.2268 15.4274 15.2142C15.4242 15.2984 15.4711 15.4424 15.4274 15.567C15.478 15.5955 15.5317 15.6183 15.5874 15.6349C15.5599 15.6948 15.5 15.8469 15.3997 15.9197C15.4838 15.9602 15.4951 16.0071 15.6149 16.0477C15.5663 16.1157 15.4869 16.2323 15.4515 16.3037C15.4158 16.3798 15.2879 16.6953 15.2313 16.815C15.1715 16.9348 15.0906 17.1548 15.0517 17.199C15.0127 17.2431 14.872 17.4303 14.7637 17.5225C14.8597 17.4869 15.2524 17.3672 15.419 17.3219C15.3694 17.3946 15.118 17.7676 14.8763 18.1263C13.719 18.82 12.4272 19.259 11.0869 19.4142C9.74663 19.5693 8.38867 19.4371 7.10352 19.0262L7.10426 19.0246Z" fill="#E0CD81"/>
<path fill-rule="evenodd" clip-rule="evenodd" d="M5.18295 8.45662C5.18295 8.45662 5.04226 8.45662 5.01474 8.47603C4.98722 8.49544 5.15554 8.53598 5.20727 8.55539C5.259 8.5748 5.37068 8.66376 5.3998 8.73502C5.42732 8.80296 6.41111 9.19934 6.41111 9.19934L7.1069 9.16371L7.34679 8.8323L6.89047 8.43262L7.21047 7.48926L6.78658 7.5572L5.76716 8.1652L5.2558 8.36104L5.18295 8.45662Z" fill="#DFC57C"/>
<path fill-rule="evenodd" clip-rule="evenodd" d="M6.71307 8.76875C6.72313 8.78504 6.73729 8.79839 6.75415 8.80747C6.771 8.81655 6.78994 8.82104 6.80907 8.82049C6.95307 8.82049 7.08566 8.85611 7.1407 8.92886C7.23296 9.04545 7.48864 9.41761 7.48864 9.41761L8.10027 9.63766L8.13974 8.91745L7.47147 8.45312L6.71094 8.73302V8.76865H6.71264L6.71307 8.76875Z" fill="#E5CC7C"/>
<path fill-rule="evenodd" clip-rule="evenodd" d="M6.59282 9.03566C6.59282 9.03566 6.7044 9.04377 6.8452 8.99193C6.986 8.94009 7.21736 8.82852 7.31773 8.87225C7.45842 8.93209 7.4293 9.11982 7.58152 9.28825C7.67368 9.39182 7.842 9.38862 7.93746 9.5003C8.03293 9.61198 8.36136 9.56014 8.36136 9.56014L8.48594 10.2321L7.986 10.873L7.82248 11.6691H7.14642L6.52882 11.424L6.22461 10.688L6.37672 9.94372L6.59282 9.03566Z" fill="#D2C281"/>
<path fill-rule="evenodd" clip-rule="evenodd" d="M7.90052 9.06765C7.91729 9.07282 7.93471 9.07555 7.95225 9.07576C7.93284 9.09197 7.89231 9.12749 7.90852 9.21976C7.92473 9.31202 7.97647 9.4285 7.93284 9.49965C7.96767 9.53773 7.99364 9.58304 8.00889 9.63234C8.03641 9.7117 8.04452 9.78445 8.22404 9.79586C8.19813 9.81181 8.17424 9.83083 8.15289 9.8525C8.15289 9.8525 8.27748 9.96088 8.34063 10.0611C8.40527 10.0584 8.57679 10.005 8.57679 10.005L8.61241 10.0294L8.68847 9.99736C8.68847 9.99736 8.61732 9.96984 8.66905 9.79672C8.71759 9.64461 8.76132 9.65272 8.76505 9.64141C8.76879 9.6301 8.80068 9.46989 8.80068 9.40514C8.82489 9.32109 8.84431 9.06541 8.84431 9.06541L8.79257 8.50072L8.50137 8.32429L8.26457 8.0957L8.04121 8.5164L7.89412 8.66306L7.88281 9.02712L7.90052 9.06765Z" fill="#E2C270"/>
<path fill-rule="evenodd" clip-rule="evenodd" d="M8.59961 8.59527C8.59961 8.59527 8.65134 8.74247 8.67086 8.85575C8.67774 8.83373 8.68155 8.81086 8.68217 8.7878C8.68217 8.7878 8.7226 9.01116 8.7306 9.10343C8.74681 9.10012 8.7626 9.09532 8.76622 9.11143C8.76985 9.12753 8.80676 9.30727 8.79822 9.40753C8.8656 9.29637 8.95884 9.20313 9.07001 9.13575C9.13476 9.09521 9.21081 9.05159 9.29017 9.04828C9.41476 9.04508 9.50532 9.12764 9.65422 9.12764C10.0134 9.12764 10.3387 8.86385 10.5782 8.783C10.7545 8.72305 10.9066 8.67943 11.0134 8.58225C11.0652 8.53863 11.1575 8.44156 11.2415 8.29745C11.3532 8.10545 11.4697 7.93831 11.5863 7.91729C11.5335 7.92698 11.4799 7.93078 11.4263 7.9286C11.4263 7.9286 11.4619 7.89297 11.5223 7.84444C11.5826 7.79591 11.655 7.73607 11.7584 7.73607C11.943 7.73607 12.0351 7.76348 12.1387 7.76348C12.2423 7.76028 12.3021 7.73607 12.3021 7.73607C12.3021 7.73607 12.4106 7.81212 12.6549 7.81212C12.8992 7.81532 13.0626 7.83633 13.1905 7.84775C13.3184 7.85916 13.7471 7.81212 13.8701 7.81575C13.9503 7.81884 14.029 7.8381 14.1016 7.87239L13.7051 6.72039L12.2809 5.47559L11.433 6.07591L10.1287 7.38012L8.8666 7.84775L8.60281 8.14385V8.59527H8.59961Z" fill="#CCB360"/>
<path fill-rule="evenodd" clip-rule="evenodd" d="M11.4328 7.9356C11.4328 7.9356 11.4684 7.90008 11.5282 7.85155C11.5879 7.80302 11.661 7.74307 11.7644 7.74307C11.9489 7.74307 12.0411 7.77059 12.1447 7.77059C12.2483 7.76739 12.3081 7.74307 12.3081 7.74307C12.3081 7.74307 12.4167 7.81902 12.6609 7.81902C12.9052 7.82222 13.0687 7.84323 13.1966 7.85454C13.3244 7.86584 13.7531 7.81902 13.8761 7.82254C13.9563 7.82555 14.035 7.84482 14.1075 7.87918L13.9279 7.35971L13.7192 6.96334L13.1237 6.31118C13.1237 6.31118 12.409 5.89048 12.4036 5.88728C12.4004 5.88408 12.156 5.81934 12.156 5.81934L11.5088 6.21091L10.9215 7.73038L10.9102 8.05038L11.2903 8.23C11.3858 8.07 11.4911 7.942 11.5897 7.92579C11.5007 7.9355 11.4327 7.9355 11.4327 7.9355L11.4328 7.9356Z" fill="#D5B457"/>
<path fill-rule="evenodd" clip-rule="evenodd" d="M11.4239 8.04332C11.3672 8.04652 11.3204 8.03521 11.3074 7.99479C11.2589 7.85889 11.22 7.83948 11.1794 7.83948C11.1388 7.83948 11.0839 7.92684 11.0514 7.93484C11.0189 7.94284 10.9803 7.83457 10.9803 7.83457L10.9446 7.81836C10.9446 7.81836 10.7359 7.95425 10.5887 8.11447C10.4415 8.27468 10.2003 8.54657 10.0919 8.595C9.98357 8.64343 9.6113 8.65975 9.48394 8.68727C9.35658 8.71479 9.21536 8.80705 9.19594 8.82807C9.17653 8.84908 9.25269 8.87169 9.264 8.89271C9.2753 8.91212 9.1393 8.90401 9.128 8.92471C9.12 8.94092 9.16 9.03308 9.17984 9.08001C9.21455 9.06275 9.25265 9.05336 9.29141 9.05249C9.416 9.04929 9.50666 9.13185 9.65546 9.13185C10.0147 9.13185 10.3399 8.86807 10.5794 8.78711C10.7558 8.72727 10.9079 8.68353 11.0147 8.58647C11.0665 8.54284 11.1587 8.44567 11.2429 8.30167C11.3043 8.203 11.3643 8.11073 11.4242 8.04279L11.4239 8.04332Z" fill="#D2B257"/>
<path fill-rule="evenodd" clip-rule="evenodd" d="M6.27194 16.0523C6.27194 16.0523 6.23994 15.9325 5.94341 15.6235C5.85925 15.5361 5.80752 15.4635 5.75088 15.4115C5.61008 15.2787 5.52752 15.2432 5.42725 15.1672C5.2072 15.0037 4.96773 15.0037 4.7833 14.8031C4.59888 14.6025 4.38394 14.2191 4.23461 13.8273C4.08741 13.4357 4.04688 13.3112 4.04688 13.2999C4.04688 13.2885 4.08741 13.2125 4.13914 13.2238C4.19087 13.2351 4.19088 13.3354 4.20389 13.3597C4.22966 13.3994 4.2589 13.4367 4.29125 13.4713C4.3673 13.5587 4.47568 13.6633 4.53072 13.8192C4.51941 13.6865 4.47408 13.5393 4.47408 13.5393C4.47408 13.5393 4.75888 13.7189 5.00154 13.9066C5.24592 14.0943 5.34618 14.1591 5.41754 14.2787C5.4889 14.3984 5.65701 14.714 5.73754 14.8063C5.81808 14.8986 6.92154 15.2464 6.92154 15.2464L7.44645 15.6378L7.70704 16.209L7.50309 16.529L7.11152 16.6131L6.47557 16.3283L6.27194 16.0522V16.0523Z" fill="#D2B159"/>
<path fill-rule="evenodd" clip-rule="evenodd" d="M4.85938 14.0844C4.85938 14.0844 4.99207 14.2963 5.31569 14.497C5.607 14.6734 6.06812 14.8336 6.47921 14.9291C6.71537 14.9857 6.95164 15.0293 7.16359 15.0326C7.73479 15.0406 8.12796 14.8773 8.61511 14.8239C8.8789 14.7964 9.20252 14.7754 9.53906 14.6959C9.97106 14.5923 10.2267 14.4757 10.5747 14.3119C10.8271 14.1954 11.0585 14.1081 11.2461 13.9964C11.5099 13.8411 11.7025 13.6679 11.9258 13.6162C11.8983 13.6923 11.8692 13.8282 11.6491 13.969C11.7656 13.9657 11.9258 13.9577 11.9258 13.9577C11.9258 13.9577 11.7705 14.0498 11.497 14.257C11.3287 14.385 11.1055 14.6016 10.8773 14.7456C10.73 14.8379 10.5698 14.9056 10.4646 14.9609C10.2086 15.1017 10.1053 15.1728 9.93714 15.3449C9.99698 15.3417 10.0019 15.3449 10.0019 15.3449C10.0019 15.3449 9.78983 15.3724 9.63783 15.4532C9.60583 15.4532 9.55036 15.4419 9.45329 15.4694C9.37724 15.4937 9.27687 15.5488 9.1734 15.5778C9.02609 15.6215 8.97767 15.6021 8.97767 15.6021L9.00188 15.6507C9.00188 15.6507 8.80988 15.6474 8.74588 15.6539C8.75719 15.6571 8.75399 15.662 8.75399 15.662C8.74275 15.6639 8.73192 15.6677 8.72199 15.6733C8.69119 15.6932 8.65731 15.708 8.62172 15.7169C8.60231 15.7201 8.5861 15.7201 8.56178 15.725C8.56988 15.7444 8.63303 15.853 8.66215 15.917C8.63794 15.9332 8.27378 16.2083 8.27378 16.2083C8.28507 16.2261 8.2943 16.2451 8.30129 16.265C8.3126 16.3005 8.31751 16.3523 8.32882 16.3765C8.35623 16.4251 8.37244 16.4332 8.37244 16.4332C8.37244 16.4332 8.32881 16.4413 8.25265 16.4607C8.18801 16.4769 8.10865 16.5043 7.99665 16.5205C7.96229 16.525 7.92772 16.5277 7.89308 16.5286C7.9093 16.5643 7.98044 16.7002 7.84935 16.8571C7.71825 17.014 7.67783 17.0368 7.6374 17.1371C7.61705 17.1217 7.59539 17.1081 7.57265 17.0965C7.52903 17.0771 7.46908 17.0481 7.44807 17.0092C7.43582 17.061 7.41959 17.1119 7.39954 17.1613C7.35911 17.2697 7.29927 17.3765 7.28796 17.4574C7.24423 17.4089 7.16338 17.3134 7.0517 17.3328C6.94002 17.3522 6.85106 17.5043 6.83164 17.5481C6.83164 17.5205 6.81223 17.4995 6.80743 17.5318C6.80412 17.5675 6.74268 17.9395 6.39964 18.2405C6.39644 18.1645 6.39644 17.9962 6.38834 17.9412C6.35634 17.9732 6.31719 18.0205 6.08412 18.1209C5.85596 18.2211 5.89212 18.3215 5.89212 18.3215C5.89212 18.3215 5.87271 18.1615 5.9957 17.993C6.12028 17.8247 6.19634 17.7454 6.19634 17.7325C6.19432 17.7193 6.18871 17.707 6.18012 17.6969C6.16391 17.6806 6.13159 17.6612 6.13159 17.6483C6.151 17.6403 6.34354 17.5481 6.33223 17.357C6.32092 17.1856 6.24818 17.0965 6.19634 17.0335C6.18834 17.0254 6.2725 16.9655 6.26108 16.9461C6.25298 16.9348 6.14951 16.8587 6.1365 16.8181C6.13955 16.7939 6.14498 16.7701 6.15271 16.747C6.16401 16.7114 6.17212 16.687 6.16892 16.6628C6.16082 16.6224 6.11708 16.5107 6.10418 16.4994C6.11548 16.5026 6.19634 16.4994 6.19634 16.4994C6.19634 16.4994 6.1317 16.3958 6.12028 16.3473C6.10887 16.2988 6.08466 16.1709 6.07175 16.1467C6.09927 16.1499 6.16721 16.1547 6.16721 16.1467C6.17052 16.1223 6.10737 16.0819 6.13521 16.0507C6.15463 16.0539 6.19185 16.0701 6.22737 16.1154C6.20796 16.0636 6.17564 15.9633 6.10759 15.9229C6.13959 15.9116 6.24839 15.8823 6.34385 15.939C6.43932 15.9956 6.47185 16.0749 6.47185 16.0749C6.47185 16.0749 6.52849 16.1186 6.61596 16.1834C6.71623 16.2626 6.84401 16.3754 7.04796 16.4551C7.09169 16.4795 7.20327 16.4795 7.28423 16.4633C7.31948 16.4549 7.35328 16.4412 7.3845 16.4228C7.39577 16.4162 7.40771 16.4107 7.42012 16.4066C7.40273 16.3717 7.38272 16.3381 7.36028 16.3062C7.3878 16.3062 7.42012 16.3095 7.42012 16.3095C7.42012 16.3095 7.43954 16.2658 7.35218 16.1815C7.37159 16.1621 7.39591 16.1495 7.39591 16.1168C7.36839 16.1136 7.31985 16.0732 7.30855 16.057C7.32465 16.0457 7.34898 16.0084 7.3765 15.9971C7.35218 15.9777 7.29234 15.8967 7.26482 15.8887C7.2911 15.879 7.31654 15.8671 7.34087 15.8531C7.34087 15.8531 7.20497 15.8175 7.16124 15.7884C7.11751 15.7564 7.05287 15.701 7.01404 15.6848C6.97351 15.6686 6.90236 15.6606 6.87324 15.6282C6.90065 15.6363 6.94439 15.6282 6.97682 15.6282C7.00103 15.6282 7.01244 15.6314 7.02044 15.6314C7.01724 15.6201 7.01724 15.5957 7.08039 15.5877C7.11076 15.5832 7.14024 15.5739 7.16775 15.5602C7.16775 15.5602 7.1078 15.557 7.03975 15.4923C6.9717 15.4275 6.91516 15.3758 6.87634 15.3677C6.83591 15.3596 6.75986 15.3952 6.71292 15.3919C6.64818 15.3839 6.62065 15.3515 6.62065 15.3515C6.62065 15.3515 6.40551 15.3709 5.92818 15.0797C5.51548 14.8272 5.33586 14.6039 5.33586 14.6039C5.29723 14.5899 5.2599 14.5726 5.22428 14.5521C5.06898 14.4713 4.85372 14.3029 4.86023 14.0828L4.85938 14.0844Z" fill="#C2A44D"/>
<path fill-rule="evenodd" clip-rule="evenodd" d="M10.8109 4.37194C10.8483 4.3841 10.8816 4.40653 10.9069 4.43669C10.983 4.52405 11.0315 4.68906 10.8584 4.86549C10.9263 4.8897 10.9544 4.89749 11.0137 4.8897C10.9538 4.96095 10.8179 5.11306 10.8098 5.24575C10.8017 5.35413 10.8697 5.38655 10.8697 5.38655C10.8697 5.38655 10.7661 5.50623 10.7613 5.70655C10.8102 5.65139 10.8637 5.60051 10.9213 5.55445C11.0411 5.45898 11.2061 5.35061 11.3178 5.28266C11.3163 5.31114 11.3201 5.33965 11.3291 5.36671C11.3291 5.36671 11.5377 5.19519 11.7131 5.27135C11.7923 5.30698 11.7567 5.41855 11.7567 5.41855C11.7567 5.41855 11.8652 5.37813 11.9412 5.45418C12.0173 5.53023 12.1248 5.72639 12.18 5.80245C12.2042 5.83807 12.2673 5.90602 12.332 6.01119C12.4203 6.15844 12.494 6.31395 12.5521 6.47551C12.5553 6.39135 12.5763 6.26037 12.8159 6.34282C13.0554 6.42698 13.3272 6.60341 13.5553 6.95082C13.7835 7.29823 13.84 7.69045 13.9549 7.83978C14.0714 7.98378 14.1912 8.22325 14.1993 8.32362C14.2074 8.42399 14.1636 8.74751 14.4031 9.62293C14.4711 9.35114 14.5746 8.74751 14.5746 8.74751L14.6313 8.21514L14.696 6.56789L12.9759 5.13887L11.6313 4.16309L10.7559 4.24725L10.8108 4.37183L10.8109 4.37194Z" fill="#CAA13E"/>
<path fill-rule="evenodd" clip-rule="evenodd" d="M14.0087 6.8238C14.0087 6.8238 13.9844 6.6638 13.5799 6.3918C13.1753 6.12322 12.8598 6.12322 12.5686 5.89506C12.3452 5.71543 12.1123 5.30274 11.9606 5.16684C11.8133 5.03255 11.7891 4.64418 11.7891 4.64418L12.2858 4.22818L13.0246 3.16034L13.6491 2.47266L13.9484 2.88866L14.3644 3.3773L14.5958 4.35788L14.6799 5.79319L14.0079 6.82391L14.0087 6.8238Z" fill="#B59544"/>
<path fill-rule="evenodd" clip-rule="evenodd" d="M14.507 8.54437C14.5192 8.3267 14.4923 8.10861 14.4276 7.90042C14.3209 7.56869 14.0879 6.97968 13.9796 6.75909C13.9359 6.51472 13.9683 6.4953 14.0152 6.46778C14.0622 6.44026 14.2386 6.33978 14.3352 5.98725C14.4319 5.63472 14.7317 5.6232 14.7317 5.6232L14.9161 5.4873L15.1961 6.18789L15.4404 6.82064L15.5165 7.30448L15.5731 7.71706L15.4404 8.58928L14.7852 9.18149L14.5069 8.54437H14.507Z" fill="#C89D3A"/>
<path fill-rule="evenodd" clip-rule="evenodd" d="M5.36328 18.2661V18.2482C5.3769 18.2397 5.38892 18.2289 5.3988 18.2162C5.41011 18.2 5.41832 18.1806 5.42632 18.1758C5.44253 18.1677 5.51859 18.1438 5.55901 18.1514C5.59944 18.1591 5.70632 18.2032 5.76296 18.2C5.87944 18.1968 6.01533 18.1077 6.23059 18.1482C6.55421 18.2081 6.63027 18.4281 6.818 18.5527C6.946 18.6402 7.07848 18.6013 7.09789 18.6013H7.14152C7.14963 18.6013 7.20947 18.5333 7.24189 18.5366C7.30664 18.5398 7.31304 18.5933 7.35347 18.5965C7.44893 18.6078 7.63347 18.5479 7.72573 18.5722C7.75309 18.5808 7.77797 18.5959 7.79826 18.6161C7.81854 18.6364 7.83362 18.6613 7.84221 18.6886C7.86163 18.7485 7.84541 18.8245 7.79848 18.8682C7.69821 18.9604 7.60275 19.0479 7.58333 19.1242C7.60803 19.1431 7.63174 19.1632 7.65437 19.1844C6.85375 18.9804 6.08345 18.672 5.36328 18.2671V18.2661Z" fill="#CEB052"/>
<path fill-rule="evenodd" clip-rule="evenodd" d="M13.9805 15.0328C13.9805 15.0328 14.2328 14.6963 14.3203 14.5295C14.4077 14.3577 14.0436 12.1817 14.0436 12.1817L14.775 9.78533L14.7555 9.00538C14.7555 9.00538 14.7911 8.28527 14.8753 7.97295C14.9757 8.15258 15.288 8.36943 15.3559 8.48431C15.3879 8.26415 15.4966 7.79983 15.4805 7.30469C15.5404 7.39685 15.6844 8.3241 15.6844 8.3241L15.8284 8.94863L16.0161 9.6121L16.2248 10.3128L16.3494 10.7966L16.4206 10.9131L16.4805 11.117L16.5372 11.3371L16.7006 11.8533L16.7966 12.2772L16.8726 13.0458C16.8892 13.1047 16.9011 13.1647 16.9083 13.2254C16.9115 13.3096 16.8969 13.3581 16.8969 13.3727C16.8969 13.3874 16.9245 13.5572 16.9132 13.6851C16.8969 13.8131 16.8969 13.9132 16.7966 14.0051C16.6962 14.0969 16.6332 14.6458 16.6332 14.6458L16.4535 14.5261C16.4535 14.5261 16.4892 14.3626 16.405 14.2138C16.3208 14.065 16.1574 14.0342 16.0652 14.0585C15.973 14.0779 15.7886 14.1069 15.7286 14.1588C15.672 14.2105 15.5329 14.3707 15.405 14.4436C15.245 14.5396 14.9843 14.5471 14.8452 14.5795C14.7044 14.6115 14.5491 14.7075 14.3856 14.8189C14.2574 14.9019 14.122 14.9733 13.9811 15.0323V15.0323L13.9805 15.0328Z" fill="#CCA847"/>
<path fill-rule="evenodd" clip-rule="evenodd" d="M13.9805 18.5681C13.9805 18.5681 13.9911 18.575 14.0117 18.5863C15.1613 18.0477 16.1914 17.2842 17.0411 16.341C17.0318 16.0135 17.0197 15.6778 17.0065 15.5534C16.9791 15.2897 16.9985 15.0211 16.9904 14.8658C16.9823 14.7105 16.8949 14.0777 16.8545 13.9143C16.8108 13.7509 16.7265 13.6699 16.7137 13.6699C16.7024 13.6732 16.6343 13.9774 16.6343 14.0539C16.6343 14.1304 16.6181 14.3145 16.6181 14.3614C16.6068 14.3581 16.602 14.3294 16.602 14.3177C16.5858 14.3581 16.5664 14.4294 16.5583 14.4375C16.5502 14.4456 16.5696 14.3695 16.5583 14.3533C16.547 14.3371 16.5263 14.3452 16.5308 14.3048C16.5327 14.2808 16.5365 14.257 16.5421 14.2337C16.5421 14.2337 16.4935 14.3048 16.458 14.486C16.4224 14.6657 16.4224 14.6706 16.4095 14.6867C16.3982 14.7062 16.3334 14.7708 16.3301 14.7951C16.3269 14.8388 16.3901 14.8825 16.3949 14.9067C16.3981 14.9473 16.3382 15.1349 16.3188 15.2267C16.2994 15.3186 16.3075 15.4985 16.2868 15.5908C16.2706 15.6749 16.2548 15.7235 16.1995 15.759C16.2399 15.7671 16.2787 15.7784 16.2787 15.7784C16.2787 15.7784 16.3353 16.0179 16.1913 16.2218C16.1396 16.293 16.1267 16.3254 16.0717 16.3901C15.9632 16.5098 15.879 16.6461 15.8709 16.7348C15.8653 16.7086 15.8615 16.6821 15.8596 16.6554C15.8596 16.6554 15.6914 16.8513 15.6201 16.9629C15.528 17.1069 15.4001 17.0988 15.3641 17.1345C15.3282 17.1701 15.3204 17.2347 15.3321 17.2866C15.3001 17.2946 15.24 17.306 15.1995 17.4306C15.18 17.4952 15.1315 17.5586 15.0555 17.6021C14.9794 17.6456 14.8871 17.6587 14.8402 17.67C14.8806 17.6813 14.8968 17.6813 14.9163 17.6942C14.892 17.7347 14.7804 17.7978 14.6558 17.8788C14.5312 17.9548 14.4712 18.0664 14.4405 18.1393C14.4085 18.2072 14.3613 18.2509 14.2852 18.259C14.3172 18.2785 14.3646 18.3237 14.3888 18.3383C14.3532 18.3464 14.2928 18.3464 14.1849 18.4387C14.0717 18.5325 14.0328 18.5601 13.981 18.5682L13.9805 18.5681Z" fill="#C39D3C"/>
<path fill-rule="evenodd" clip-rule="evenodd" d="M11.729 19.3173C11.791 19.2738 11.8581 19.2383 11.9288 19.2114C12.1812 19.1111 12.4482 19.0917 12.5534 19.0594C12.6537 19.0274 12.733 18.9832 12.8576 18.959C12.8543 18.9874 12.8515 19.014 12.8485 19.0392C12.4812 19.1547 12.1072 19.2475 11.7285 19.3173H11.729Z" fill="#D2BA6B"/>
<path fill-rule="evenodd" clip-rule="evenodd" d="M16.3847 12.6797C16.3847 12.6797 16.333 12.9596 16.2407 13.136C16.1484 13.3124 16.0487 13.5567 16.0487 13.5567C16.0493 13.5016 16.0558 13.4468 16.0681 13.3932C15.9516 13.4611 15.6684 13.6246 15.5881 13.6974C15.5121 13.7653 15.3842 13.8851 15.3518 13.9418C15.4279 13.7185 15.5072 13.5179 15.5202 13.4256C15.4037 13.5098 14.8599 13.958 14.5768 14.2541L13.6949 14.9677C13.5931 15.0226 13.4883 15.0717 13.381 15.1147C13.229 15.1793 13.0493 15.2343 12.9166 15.2862C12.9523 15.1907 13.0088 15.1064 13.0882 15.0256C13.1723 14.9463 13.4247 14.6728 13.4635 14.5456C13.4992 14.4129 13.5073 14.3336 13.4603 14.222C13.4166 14.2333 13.3163 14.2382 13.2484 14.2576C13.1804 14.277 13.1076 14.3498 13.1076 14.3498C13.1076 14.3498 13.1593 14.0536 13.271 13.7738C13.1868 13.777 13.0428 13.8012 13.0428 13.8012C13.0428 13.8012 13.2435 13.4646 13.5868 13.2301C13.4817 13.2525 13.3788 13.2844 13.2794 13.3254C13.0788 13.4096 12.8587 13.5342 12.6953 13.6021C12.7875 13.4741 13.4347 12.5504 13.8199 11.6895C14.2039 10.8303 14.3474 10.6102 14.4315 10.1491C14.4752 9.92095 14.4635 9.58378 14.4752 9.28181C14.4865 8.98239 14.5237 8.71381 14.4995 8.53418C14.5997 8.65877 14.9752 9.00991 14.9881 9.79477C14.9994 10.5795 14.629 11.6395 14.2357 12.2106C14.3317 12.2381 14.5804 12.2705 14.836 11.8266C15.0916 11.3826 15.0885 11.2587 15.1808 11.0741C15.1921 11.1664 15.1888 11.1987 15.1888 11.1987C15.1888 11.1987 15.561 10.7473 15.7373 10.1793C15.773 10.4237 15.8781 10.6389 15.713 11.0871C15.5658 11.4916 15.3733 11.5904 15.3733 11.5904C15.3733 11.5904 15.4688 11.5742 15.6094 11.49C15.6338 11.5499 15.629 11.618 15.6694 11.6421C15.7098 11.6662 15.7649 11.7069 15.773 11.7457C15.8166 11.681 15.8845 11.5984 15.9057 11.537C15.8894 11.665 15.8781 12.2246 15.9377 12.5094C16.0624 12.4981 16.1901 12.49 16.2775 12.2651C16.2177 12.4852 16.2177 12.6178 16.2581 12.8055C16.3244 12.7603 16.3843 12.6794 16.3843 12.6794L16.3847 12.6797Z" fill="#C0993A"/>
<path fill-rule="evenodd" clip-rule="evenodd" d="M12.18 3.76062C12.18 3.76062 12.0555 3.81236 11.8435 3.81236C11.6591 3.81236 11.7108 3.74121 11.4228 3.74121C10.9795 3.74121 9.43092 3.99721 9.15903 3.99358C8.9826 3.99038 9.75444 4.06964 9.75444 4.06964L11.727 4.09716L12.1234 4.06516L12.2707 3.76542L12.18 3.76062Z" fill="#A88F33"/>
<path fill-rule="evenodd" clip-rule="evenodd" d="M7.06398 7.61603C7.06398 7.61603 6.8115 7.80857 6.70472 7.95587C6.59795 8.10318 6.54131 8.20014 6.41992 8.31993C6.44842 8.32101 6.47689 8.31719 6.50408 8.30862C6.50408 8.30862 6.50408 8.34062 6.48467 8.34905C6.50144 8.34717 6.51843 8.34907 6.53437 8.35461C6.55032 8.36014 6.56483 8.36918 6.57683 8.38105C6.5412 8.40046 6.44414 8.49763 6.52019 8.61251C6.57683 8.69987 6.69662 8.70787 6.69662 8.70787C6.69662 8.70787 6.6691 8.78723 6.78398 8.77913C7.03155 8.76782 7.30824 8.65934 7.43603 8.68686C7.56403 8.71886 7.63678 8.73059 7.72734 8.88761C7.82334 9.04291 7.90696 9.06723 7.90696 9.06723C7.90696 9.06723 7.9636 8.92313 7.9507 8.70798C7.99714 8.59201 8.02288 8.46879 8.02675 8.34393L7.94259 7.72419L7.57534 7.25977L7.0996 7.52355L7.06398 7.61571V7.61603Z" fill="#E3C571"/>
<path fill-rule="evenodd" clip-rule="evenodd" d="M7.51562 7.52416C7.51562 7.52416 7.55125 7.60832 7.70016 7.61632C7.68394 7.65195 7.68394 7.65686 7.68885 7.68427C7.69205 7.71179 7.69685 7.75222 7.69685 7.75222C7.71325 7.74428 7.72806 7.73344 7.74058 7.72022C7.74869 7.75584 7.73248 7.81238 7.74058 7.85291C7.74559 7.87756 7.75372 7.90147 7.7648 7.92406C7.76716 7.91852 7.76987 7.91314 7.7729 7.90795C7.7761 7.89984 7.8049 7.99531 7.88458 8.06795C7.88452 8.05678 7.88727 8.04577 7.89258 8.03595C7.89381 8.05624 7.90052 8.07582 7.912 8.09259C7.90603 8.08975 7.90059 8.08592 7.89589 8.08128C7.89589 8.08128 7.90389 8.33728 7.94763 8.46966C7.95493 8.4611 7.96143 8.45189 7.96704 8.44214C7.96704 8.43414 7.96384 8.51339 7.95573 8.57014C7.94443 8.62678 7.95253 8.70603 7.95253 8.70603C7.9817 8.68306 8.01377 8.66402 8.04789 8.64939C8.09642 8.62987 8.17589 8.57003 8.22432 8.43734C8.25241 8.36219 8.27407 8.28479 8.28907 8.20598C8.30471 8.2361 8.31551 8.26849 8.32107 8.30198C8.32437 8.3424 8.40043 8.32139 8.40043 8.32139L8.41664 8.14496L8.51264 7.74528L8.6 7.49771L9.02069 6.84246L9.7808 6.25707L10.4443 6.40918L11.0041 5.64864L10.0397 5.06934L9.12704 5.1648L8.29877 6.312L7.63541 7.35254L7.51562 7.52406V7.52416Z" fill="#D8B65B"/>
<path fill-rule="evenodd" clip-rule="evenodd" d="M12.2953 5.8644C12.2953 5.8644 12.2386 5.87571 12.0752 5.9604C11.9118 6.04509 11.7985 6.07197 11.7354 6.19656C11.6722 6.32115 11.6674 6.41992 11.6674 6.41992C11.6674 6.41992 11.7791 6.37139 11.8439 6.35517C11.9118 6.33907 11.9879 6.34386 11.9798 6.37138C11.972 6.39026 11.9612 6.40773 11.9478 6.42312C11.9478 6.42312 12.0758 6.41992 12.0723 6.48307C12.0689 6.54621 12.0481 6.61576 12.0239 6.64648C11.9996 6.67848 11.8993 6.72584 11.888 6.76307C11.8605 6.83912 11.8993 6.84232 11.8847 6.90376C11.8734 6.96371 11.8201 7.08018 11.6452 7.28402C11.4656 7.48797 11.3892 7.63197 11.3892 7.63197C11.3892 7.63197 11.3019 7.46856 11.2566 7.32776C11.2246 7.34387 11.0527 7.43933 11.0527 7.43933L10.6546 6.05266L10.6626 5.9604C10.6626 5.9604 10.6983 5.91677 10.7064 5.83581C10.6465 5.8164 10.6384 5.80019 10.5591 5.72424C10.4797 5.64829 10.4151 5.55592 10.2825 5.49277C10.2631 5.45715 10.2387 5.40872 10.1417 5.3892C10.0446 5.36968 9.98637 5.35368 9.98637 5.35368C9.98637 5.35368 10.0381 5.33416 10.0624 5.29373C10.0025 5.30184 9.95405 5.32125 9.82296 5.31805C9.69026 5.31475 9.67565 5.30995 9.6029 5.32125C9.53016 5.33256 9.4429 5.36499 9.41037 5.25331C9.37474 5.22579 9.29869 5.25011 9.23394 5.34547C9.1692 5.44083 9.14658 5.51699 9.022 5.55421C9.01324 5.60913 8.99401 5.66185 8.96536 5.70952C8.92973 5.76947 8.87309 5.82931 8.79704 5.91827C8.67725 6.05907 8.69666 6.29043 8.50573 6.46685C8.3132 6.64317 8.53773 5.9781 8.53773 5.9781L8.84514 5.24211L9.72056 4.38611L11.0798 4.29395L11.2125 4.99795L11.876 5.22611L12.2951 5.86525L12.2953 5.8644Z" fill="#D3AE4D"/>
<path fill-rule="evenodd" clip-rule="evenodd" d="M12.5107 6.0191L11.9395 5.19553L11.5399 4.88801C11.5399 4.88801 11.2551 4.36385 11.2356 4.34763C11.2194 4.33633 10.9508 4.30721 10.7793 4.2959L10.8113 4.37515C10.8488 4.38731 10.882 4.40975 10.9073 4.4399C10.9834 4.52726 11.0319 4.69227 10.8588 4.8687C10.9267 4.89291 10.9548 4.9007 11.0141 4.89291C10.9543 4.96417 10.8184 5.11627 10.8103 5.24897C10.8021 5.35734 10.8701 5.38966 10.8701 5.38966C10.8701 5.38966 10.7665 5.50945 10.7617 5.70966C10.8106 5.6545 10.8642 5.60361 10.9217 5.55755C11.0415 5.46155 11.2065 5.35361 11.3182 5.28566C11.3167 5.31417 11.3205 5.34272 11.3295 5.36982C11.3295 5.36982 11.5381 5.1983 11.7135 5.27435C11.7928 5.30998 11.7571 5.42166 11.7571 5.42166C11.7571 5.42166 11.8656 5.38123 11.9417 5.45729C12.0177 5.53334 12.1261 5.72907 12.1811 5.80523C12.2053 5.84086 12.2685 5.90881 12.3331 6.01387C12.4215 6.16115 12.4952 6.31669 12.5533 6.4783C12.5565 6.41355 12.5695 6.32299 12.6813 6.32299L12.5114 6.01878L12.5107 6.0191Z" fill="#CAA13E"/>
<path fill-rule="evenodd" clip-rule="evenodd" d="M3.94961 8.35904C3.94961 8.35904 3.90918 8.25866 3.94961 8.06293C3.99003 7.8672 4.05318 7.77493 4.07419 7.48693C4.09521 7.19893 4.28294 6.83968 4.28294 6.83968L4.8023 6.60352L5.16966 6.70378L5.27803 7.19573L4.81361 7.45173C4.81361 7.45173 4.78939 7.5601 4.6583 7.64746C4.52721 7.73482 4.34598 7.80277 4.30235 7.89184C4.27627 7.94637 4.25724 8.00401 4.24571 8.06336C4.24571 8.06336 4.11302 8.03584 4.03377 8.1232C3.94961 8.21226 3.95281 8.29152 3.94961 8.35946V8.35904Z" fill="#F4EFC8"/>
<path fill-rule="evenodd" clip-rule="evenodd" d="M4.99709 8.22789C4.99709 8.22789 4.95336 8.25541 4.92104 8.32389C4.88904 8.27216 4.81256 7.96464 4.80936 7.68795C4.80616 7.41125 4.78962 7.34267 4.85362 7.24731C4.91762 7.15195 5.16861 7.05147 5.13298 6.87973C5.09736 6.71632 4.94845 6.64837 4.76562 6.69531C4.63762 6.72731 4.54237 6.99952 4.40968 7.13541C4.3093 7.23899 4.18962 7.22277 4.1573 7.27941C4.11357 7.35547 4.154 7.43152 4.14109 7.48005C4.13778 7.49627 4.09736 7.58363 4.0245 7.6888C3.8773 7.90075 3.62813 8.20016 3.5957 8.46875C3.60701 8.31664 3.59901 8.31344 3.63944 8.14512L3.61512 8.10469L3.77512 7.58043L3.87869 7.14843L4.11016 6.42501L4.51784 5.6856L4.91432 5.24219L5.3269 5.26971L5.37544 5.88944L5.6117 7.05296L6.10845 7.66459L5.31229 8.20037L4.99677 8.22789H4.99709Z" fill="#EBCC73"/>
<path fill-rule="evenodd" clip-rule="evenodd" d="M5.24355 8.44828C5.24355 8.44828 5.1756 8.46449 5.15128 8.45158C5.12696 8.43868 5.10286 8.42406 5.11086 8.40785C5.11886 8.39164 5.16259 8.36422 5.16259 8.35121C5.16349 8.33945 5.15977 8.3278 5.15222 8.31874C5.14467 8.30968 5.13389 8.30392 5.12216 8.30268C5.08494 8.29788 5.07363 8.32209 5.07363 8.32209C5.07363 8.32209 5.038 8.29468 5.00899 8.29009C5.02615 8.28799 5.04343 8.28688 5.06072 8.28678C5.01601 8.26653 4.96857 8.25291 4.91992 8.24636C4.96035 8.22214 5.03971 8.15089 5.09144 8.15089C5.14318 8.15089 5.1756 8.14289 5.1675 8.11537C5.15939 8.08785 5.11896 8.04742 5.07534 8.03121C5.09144 8.0118 5.10285 7.98268 5.06403 7.90321C5.02349 7.82396 5.03971 7.77052 5.05272 7.75121C5.06403 7.72689 5.10446 7.68326 5.12387 7.65574C5.14328 7.62822 5.1595 7.591 5.19182 7.57158C5.20803 7.56028 5.25976 7.53958 5.3116 7.51985C5.36824 7.50044 5.41518 7.47612 5.4475 7.50044C5.48312 7.52465 5.46691 7.55708 5.46691 7.55708C5.46691 7.55708 5.57859 7.51654 5.67885 7.56838C5.77923 7.61681 6.0236 7.64764 6.0236 7.64764L6.11118 7.82406L5.53187 8.32081L5.2924 8.4406L5.24387 8.4486L5.24355 8.44828Z" fill="#E5C66B"/>
<path fill-rule="evenodd" clip-rule="evenodd" d="M6.04741 7.63568C6.04741 7.63568 5.86778 7.75547 5.82735 7.79909C5.85157 7.8024 5.89199 7.81861 5.87578 7.84283C5.85637 7.86704 5.73989 7.9512 5.67514 8.03056C5.60719 8.10981 5.54245 8.21019 5.51983 8.25872C5.49562 8.30235 5.31109 8.43024 5.24805 8.44635C5.38074 8.44635 5.64773 8.28293 5.74799 8.28293C5.74479 8.33147 5.77551 8.38651 5.83215 8.39131C5.88879 8.39611 6.05221 8.42693 6.27226 8.29104C6.49231 8.15835 6.41957 8.05957 6.51173 7.99493C6.68815 7.87835 6.7593 7.77477 6.85637 7.71013C6.95343 7.64549 7.00367 7.63077 7.00367 7.63077C7.00367 7.63077 7.00687 7.58224 7.03567 7.58715C7.04356 7.58805 7.05104 7.59109 7.05732 7.59594C7.0636 7.60079 7.06843 7.60727 7.0713 7.61467C7.0713 7.61467 7.23962 7.49488 7.4553 7.46256C7.45027 7.46031 7.44624 7.45629 7.44399 7.45125C7.44399 7.45125 7.4601 7.44315 7.46341 7.43504C7.46341 7.43504 7.47471 7.41883 7.48282 7.42693C7.49093 7.43504 7.50223 7.49488 7.51845 7.5192C7.55407 7.50299 7.62202 7.35088 7.62202 7.35088L7.78554 6.88325V6.45605L7.65754 6.48037L6.69754 6.88805L6.11493 7.49168L6.04698 7.63568H6.04741Z" fill="#E6BD62"/>
<path fill-rule="evenodd" clip-rule="evenodd" d="M8.81266 5.54051C8.86459 5.52791 8.91437 5.50771 8.96039 5.48056C8.94098 5.5324 8.94098 5.58904 8.85682 5.71203C8.77266 5.83502 8.76946 5.85283 8.70151 5.98062C8.63357 6.11331 8.62546 6.30424 8.56071 6.3883C8.58973 6.3742 8.62086 6.36494 8.65287 6.36088C8.65287 6.36088 8.58823 6.41752 8.56071 6.47736C8.53319 6.5372 8.48466 6.66179 8.36498 6.73795C8.2453 6.81411 8.09309 6.86254 7.92967 7.04216C7.76615 7.21848 7.59794 7.44184 7.51367 7.52216C7.55741 7.44611 7.61724 7.294 7.63346 7.19374C7.64967 7.09347 7.63015 6.97358 7.65767 6.84099C7.68519 6.7084 7.68519 6.61283 7.81767 6.38136C7.95015 6.1499 8.17693 5.34574 8.17693 5.34574L8.66557 5.19043L8.81287 5.53998L8.81266 5.54051Z" fill="#B6933F"/>
<path fill-rule="evenodd" clip-rule="evenodd" d="M8.46038 5.24434C8.46038 5.24434 8.31318 5.45628 8.27276 5.64402C8.23233 5.83175 8.26945 5.81554 8.24524 5.9078C8.23075 5.96406 8.23075 6.02307 8.24524 6.07932C8.29622 5.9972 8.36602 5.92838 8.44886 5.87858C8.58806 5.79452 8.70134 5.73458 8.76886 5.66343C8.83681 5.58738 8.89345 5.46279 9.04065 5.36732C8.98081 5.35922 8.89665 5.3317 8.88065 5.33532C8.9406 5.26738 9.12012 5.1638 9.30134 5.03922C9.48097 4.91122 9.46966 4.85959 9.76097 4.7318C9.6655 4.74802 9.62017 4.7237 9.54081 4.7318C9.57281 4.66386 9.68481 4.63143 9.79681 4.51986C9.90881 4.40828 9.72566 4.24316 9.72566 4.24316L8.87233 4.75932L8.45974 5.24476L8.46038 5.24434Z" fill="#C49937"/>
<path fill-rule="evenodd" clip-rule="evenodd" d="M6.14453 4.85929L6.16394 4.70398L6.40832 4.31241L6.664 3.62473V2.68457L6.64458 2.14089L6.68501 1.78484L6.71573 1.67166L6.74816 1.62793L6.9568 1.7363L7.2449 2.12788L7.27242 2.88361L6.99242 4.07614L6.19306 4.94836L6.14453 4.85929Z" fill="#DFC068"/>
<path fill-rule="evenodd" clip-rule="evenodd" d="M6.77912 1.58409C6.77912 1.58409 6.65112 1.5874 6.62381 2.11977C6.5965 2.65214 6.58328 2.93204 6.56386 3.19582C6.54445 3.45961 6.49922 3.61972 6.4765 3.77513C6.45378 3.93054 6.44088 4.14238 6.36813 4.27188C6.33613 4.33172 6.26776 4.51945 6.10754 4.66025C5.92792 4.81556 5.65954 4.92404 5.6189 4.93214C5.54765 4.94825 5.1868 4.98388 5.0396 5.06484C4.98786 5.09236 4.8988 5.12468 4.80013 5.21694C4.60429 5.39326 4.34381 5.70878 4.15608 6.08905C3.86808 6.65705 3.58008 8.26057 3.58008 8.26057L3.64482 8.1522C3.64482 8.1522 3.65293 8.0082 3.79693 7.75572C3.93773 7.50334 3.8973 7.22014 4.09304 6.7363C4.16909 6.55188 4.26456 6.31241 4.38104 6.10846C4.56557 5.77673 4.78882 5.49193 5.01378 5.33662C5.38104 5.08425 5.78562 5.02921 5.78562 5.02921L6.22093 4.74121C6.22093 4.74121 6.29698 4.59401 6.39736 4.42569C6.53805 4.18953 6.71736 3.92574 6.7565 3.54228C6.81645 2.97428 6.67234 2.60212 6.68045 2.26558C6.68856 1.92905 6.69176 1.68148 6.75981 1.62153C6.82786 1.56158 6.77922 1.5843 6.77922 1.5843L6.77912 1.58409Z" fill="#A88F33"/>
<path fill-rule="evenodd" clip-rule="evenodd" d="M6.78048 4.12487C6.78048 4.12487 6.97248 3.65234 7.06038 3.23324C7.07659 3.14908 7.10891 3.06503 7.11702 2.99708C7.15744 2.6006 7.16875 2.43719 7.11702 2.22034C7.07659 2.06034 6.92128 1.91612 6.84032 1.80434C6.76107 1.68775 6.72384 1.64434 6.74006 1.6198C6.75627 1.59527 6.81931 1.55516 6.88075 1.55996C6.94606 1.56187 7.0103 1.57703 7.06957 1.60454C7.12883 1.63204 7.18189 1.67131 7.2255 1.71996C7.35008 1.86396 7.44875 2.35271 7.44875 2.35271L7.55254 2.99762L7.81632 3.80988L6.7807 4.12551L6.78048 4.12487Z" fill="#C99E3D"/>
<path fill-rule="evenodd" clip-rule="evenodd" d="M8.58457 3.63292C8.58457 3.63292 8.54894 3.64903 8.4843 3.63292C8.48706 3.65933 8.48247 3.686 8.47105 3.70998C8.45962 3.73395 8.44181 3.75431 8.41955 3.76881C8.35161 3.74129 7.71555 3.79633 7.71555 3.79633C7.71555 3.79633 7.41945 3.74449 7.32718 3.35292C7.26254 3.09233 7.37571 2.73319 7.33849 2.49692C7.28185 2.14897 7.20259 2.08092 7.19449 1.97265C7.18638 1.86439 7.17827 1.83676 7.17827 1.76881C7.14265 1.76071 7.12163 1.7494 7.08611 1.7494C7.07801 1.7174 7.09411 1.68945 7.05859 1.63281C7.07801 1.64092 7.2107 1.65713 7.36601 1.80433C7.49401 1.92412 7.49401 1.96775 7.51331 1.99207C7.53753 2.01628 7.73337 2.18407 7.81753 2.35132C7.90169 2.51857 8.0651 3.05191 8.10233 3.13927C8.11363 3.17489 8.13795 3.21052 8.19833 3.29137C8.29219 3.40796 8.42969 3.60071 8.58499 3.63271L8.58457 3.63292Z" fill="#B58634"/>
<path fill-rule="evenodd" clip-rule="evenodd" d="M7.53516 2C7.63318 2.15835 7.72124 2.32265 7.79884 2.49195C7.8943 2.70709 7.95094 2.88352 8.07073 3.02752C8.00598 2.83989 7.8911 2.47093 7.82316 2.33984C7.7471 2.20117 7.5918 2.05184 7.53516 2.00011V2Z" fill="#A88F33"/>
<path fill-rule="evenodd" clip-rule="evenodd" d="M6.43569 4.66026C6.43569 4.66026 6.27227 4.70069 5.96806 4.8609C5.86769 4.91264 5.77233 4.95626 5.68006 4.9968C5.44038 5.10517 5.18332 5.20533 4.97937 5.26058C4.99558 5.28 5.00358 5.288 5.00358 5.288C5.00358 5.288 5.00358 5.36736 5.04731 5.41258C5.0231 5.4369 4.69937 5.65696 4.79494 6.39317C4.85958 6.36896 4.93563 6.33653 4.94694 6.33653C4.96646 6.33984 4.97126 6.39317 4.99548 6.39317C5.01969 6.39317 5.09905 6.36117 5.18321 6.25237C5.18001 6.2961 5.13147 6.73621 5.39195 7.03232C5.44049 6.97568 5.56347 6.78794 5.56347 6.78794L5.56668 6.7281C5.56668 6.7281 5.57798 6.51936 5.64604 6.32842C5.71409 6.13749 5.84668 5.99669 5.84668 5.99669L6.53905 5.008L6.43547 4.66016L6.43569 4.66026Z" fill="#E6C367"/>
<path fill-rule="evenodd" clip-rule="evenodd" d="M5.78804 6.11212C5.75634 6.13452 5.72141 6.15196 5.68446 6.16385C5.67316 6.12342 5.65694 5.98422 5.75241 5.84833C5.86409 5.68481 6.10836 5.47286 6.1763 5.30433C6.22004 5.19585 6.20062 4.92406 6.589 4.57612C6.97737 4.22817 7.12937 4.10849 7.12937 4.10849L7.75721 3.79297L8.52905 4.09718L8.14558 5.60012L7.84788 6.30412L6.66388 6.08086L5.78793 6.11212H5.78804Z" fill="#DCBA5A"/>
<path fill-rule="evenodd" clip-rule="evenodd" d="M6.24023 5.70418L6.38754 5.51976V5.38866C6.38754 5.38866 6.55095 5.34493 6.72727 5.1653C6.90359 4.98568 7.14797 4.64104 7.36322 4.66205C7.57847 4.68637 7.59949 5.12968 7.60759 5.25437C7.6157 5.37906 7.64322 5.66205 7.68685 5.81426C7.73538 5.96637 7.16258 6.54237 7.16258 6.54237L6.77357 6.83848L6.24023 5.70418Z" fill="#E9CE77"/>
<path fill-rule="evenodd" clip-rule="evenodd" d="M6.69531 7.23926C6.69531 7.23926 6.8151 7.05153 6.72731 7.0111C6.77905 6.89462 6.87451 6.77164 6.87451 6.77164C6.87451 6.77164 6.94246 6.60342 7.16251 6.39628C7.38257 6.18913 7.51857 6.05153 7.55419 5.91244C7.57616 5.82179 7.5881 5.729 7.58982 5.63574C7.61361 5.65518 7.63906 5.67249 7.66587 5.68748C7.7015 5.70369 7.86971 5.84278 7.8455 6.12278C7.82129 6.40278 7.7175 6.51926 7.7175 6.51926C7.7175 6.51926 7.61723 6.61953 7.54609 6.67137C7.46993 6.7231 7.44251 6.78294 7.31462 6.78785C7.32776 6.7774 7.34254 6.76918 7.35835 6.76353C7.35835 6.76353 7.22566 6.74742 7.15441 6.81206C7.08315 6.8767 6.93169 7.07585 6.85563 7.1358C6.77958 7.18433 6.69563 7.23937 6.69563 7.23937L6.69531 7.23926Z" fill="#CDAE50"/>
<path fill-rule="evenodd" clip-rule="evenodd" d="M12.0755 4.09183C11.8844 4.02216 11.6834 3.98286 11.4801 3.97535C11.1403 3.96405 10.6435 3.98346 10.1565 3.98666C9.63222 3.98986 9.15649 3.80703 8.49633 3.77471C8.38795 3.70997 8.11233 3.42677 7.25195 4.02709C7.30369 4.02389 7.87659 3.89439 8.07553 4.14367C8.27617 4.39125 8.21953 4.81194 8.19211 4.91221C8.14027 5.13557 7.97195 5.46079 7.90411 5.68895C7.83627 5.91711 7.85227 6.03701 7.80374 6.19701C7.75521 6.35701 7.64843 6.43647 7.71147 6.6209C7.79563 6.56917 7.83947 6.56917 7.98006 6.25365C8.12065 5.93813 8.09174 5.71317 8.32481 5.44618C8.55297 5.17759 8.93281 4.81023 9.07723 4.71797C9.22166 4.6257 10.3684 4.03029 11.5692 4.59829C11.8588 4.56757 12.0756 4.09173 12.0756 4.09173L12.0755 4.09183Z" fill="#D2A83E"/>
<path fill-rule="evenodd" clip-rule="evenodd" d="M7.73678 3.87251C7.73559 3.86035 7.7329 3.84838 7.72878 3.83688C7.71755 3.81322 7.7028 3.79139 7.68505 3.77213C7.68505 3.77213 7.40025 3.7204 7.25625 3.73651C7.00377 3.76403 6.77561 4.07635 6.66883 4.23656C6.56206 4.39677 6.42937 4.64424 6.28537 4.77213C6.28694 4.75967 6.28407 4.74706 6.27726 4.73651C6.27726 4.73651 6.28537 4.74781 6.26926 4.76403C6.25315 4.78024 6.25305 4.78824 6.26115 4.79603L6.28547 4.82024C6.29347 4.82024 6.51683 4.71987 6.82105 4.43624C7.14467 4.14013 7.39225 3.98824 7.52174 3.93619C7.5908 3.90684 7.66298 3.88547 7.73689 3.87251V3.87251H7.73678Z" fill="#C29637"/>
<path fill-rule="evenodd" clip-rule="evenodd" d="M13.2609 2.65527C13.2609 2.65527 13.2091 2.71991 13.1444 2.79117C13.0004 2.94327 12.8126 3.11469 12.6524 3.29111C12.5004 3.45943 12.3289 3.59053 12.1363 3.81058C11.9436 4.03063 11.7203 4.2749 11.6637 4.34615C11.612 4.41741 11.5716 4.53389 11.5716 4.59373C11.544 4.57431 11.5117 4.5533 11.5117 4.5533C11.5253 4.5787 11.5416 4.60259 11.5603 4.62455C11.6007 4.68119 11.6637 4.75255 11.6961 4.79607C11.7359 4.85148 11.7645 4.91413 11.7802 4.9805C11.7996 4.9837 11.9242 5.00802 12.0796 4.75234C12.235 4.49666 12.4388 4.21677 12.4388 4.21677L12.7624 3.73613L12.9663 3.32845L13.2223 2.87213L13.2613 2.65527H13.2609Z" fill="#AC8132"/>
<path fill-rule="evenodd" clip-rule="evenodd" d="M13.5923 2.32812C13.5923 2.32812 13.3965 2.48812 13.3205 2.58412C13.2444 2.68012 13.0645 2.93207 13.0645 2.93207L13.1292 2.92397L13.4577 2.63276L13.5857 2.4046L13.5922 2.32855L13.5923 2.32812Z" fill="#A88F33"/>
<path fill-rule="evenodd" clip-rule="evenodd" d="M13.5321 15.1874C13.5321 15.1874 13.5289 15.0547 13.6034 14.9754C13.6794 14.8961 13.8719 14.7796 14.0597 14.3427C14.2474 13.9058 14.2683 13.8071 14.2683 13.8071C14.2683 13.8071 13.9318 14.0951 13.7243 14.1631C13.7729 14.0627 13.8004 13.9915 13.8247 13.9397C13.7972 13.9155 13.6807 13.888 13.6694 13.8751C13.734 13.8103 13.7697 13.6517 13.9007 13.5465C14.0691 13.4185 14.3765 13.1986 14.6154 13.0025C14.8543 12.8065 15.3241 12.3505 15.3841 12.2178C15.4197 12.2695 15.4277 12.3018 15.4277 12.3018C15.4277 12.3018 15.1915 12.6093 15.0685 12.8051C14.9601 12.9734 14.9682 13.0689 14.9682 13.0689L15.1915 12.9729C15.1915 12.9729 15.2562 13.2123 14.9634 13.5765C15.0914 13.528 15.143 13.5571 15.2157 13.5165C15.0959 13.5927 14.9309 13.6963 14.7756 13.981C14.6235 14.2658 14.4164 14.5975 14.0669 14.8045C13.7271 15.023 13.5312 15.1864 13.5312 15.1864L13.5321 15.1874Z" fill="#A67A2E"/>
<path fill-rule="evenodd" clip-rule="evenodd" d="M12.6563 4.26031C12.6563 4.26031 12.5236 4.53689 12.5042 4.75215C12.501 4.80399 12.488 4.84441 12.488 4.90425C12.4848 5.09678 12.4993 5.31204 12.456 5.4123C12.4398 5.37188 12.4317 5.34436 12.4154 5.32825C12.3912 5.3962 12.3475 5.60814 12.3119 5.6874C12.2958 5.63566 12.2601 5.45604 12.2634 5.24409C12.2667 5.03215 12.2714 4.99161 12.2714 4.94799C12.2634 5.01263 12.2197 5.10009 12.2035 5.15183C12.1793 5.1082 12.1518 5.05156 12.1193 5.00462C12.0999 5.03662 12.0757 5.08388 12.0547 5.1082C12.0514 5.08879 12.0434 5.03695 12.0385 4.9642C12.0353 4.88004 12.0304 4.77166 12.0353 4.74894C12.0433 4.70532 12.1113 4.5338 12.2553 4.37679C12.4269 4.18905 12.6033 3.8283 12.655 3.71662C12.7067 3.60494 12.9268 3.14062 12.9268 3.14062H13.0951L12.8507 3.69721C12.8507 3.69721 12.7035 4.00143 12.6275 4.11321C12.5514 4.225 12.3912 4.54532 12.32 4.6699C12.3717 4.60196 12.4154 4.56633 12.4673 4.50158C12.5174 4.45625 12.6565 4.26052 12.6565 4.26052L12.6563 4.26031Z" fill="#8C6228"/>
<path fill-rule="evenodd" clip-rule="evenodd" d="M13.5958 2.30762C13.5683 2.39224 13.5249 2.47081 13.4678 2.53908C13.3675 2.65887 13.1522 2.81898 13.0471 2.94676C12.9511 3.07135 12.7591 3.41119 12.8464 3.81407C12.8784 3.72671 12.9387 3.55359 13.0989 3.35775C13.2591 3.16191 13.4306 2.93706 13.5149 2.76234C13.5989 2.58591 13.6102 2.44682 13.6102 2.44682L13.6422 2.40639L13.6228 2.31412L13.5953 2.30762H13.5958Z" fill="#CBA94C"/>
<path fill-rule="evenodd" clip-rule="evenodd" d="M16.872 13.0406C16.872 13.0406 16.8073 12.8643 16.7878 12.704C16.7684 12.5438 16.8198 12.5121 16.7603 12.3287C16.7247 12.217 16.6601 12.2327 16.6438 12.217C16.6276 12.2013 16.6163 12.0326 16.6195 11.9403C16.6227 11.848 16.6163 11.7284 16.6001 11.6765C16.5759 11.6571 16.5597 11.6409 16.5241 11.5212C16.4836 11.4014 16.4642 11.3416 16.4448 11.3061C16.4254 11.2706 16.3686 11.2381 16.3686 11.2025C16.3686 11.1312 16.4334 11.0941 16.4334 11.0745C16.4302 11.0341 16.3817 11.0665 16.3686 11.0551C16.3525 11.0357 16.4092 10.9192 16.3882 10.903C16.3801 10.895 16.3234 10.9629 16.3088 10.9435C16.2926 10.924 16.2732 10.7315 16.2441 10.6037C16.2166 10.4791 16.1874 10.3885 16.1842 10.3513C16.181 10.3157 15.9609 9.68784 15.9075 9.53573C15.8645 9.4072 15.8284 9.27649 15.7991 9.14416C15.7829 9.0681 15.7716 8.91269 15.7635 8.9289C15.7554 8.94512 15.7603 9.02437 15.7473 9.02117C15.736 9.01786 15.6956 8.74128 15.6827 8.69754C15.6714 8.65381 15.6033 8.50554 15.5867 8.39824C15.5705 8.28976 15.5349 8.00656 15.5106 7.81402C15.4863 7.62149 15.475 7.54224 15.475 7.49402C15.479 7.3761 15.4725 7.25805 15.4556 7.14128C15.4236 6.93733 15.3596 6.68976 15.3035 6.54586C15.1951 6.27397 14.907 5.57818 14.8555 5.40506C14.8555 5.36133 14.9121 5.38565 14.9121 5.38565C14.9121 5.38565 15.0528 5.7384 15.1564 6.01018C15.2567 6.28208 15.3522 6.52154 15.3765 6.54586C15.3959 6.57008 15.5481 6.83706 15.616 7.27397C15.6839 7.71088 15.7082 8.11376 15.7487 8.38234C15.7681 8.51034 15.7843 8.64613 15.8247 8.78202C15.8684 8.92933 15.9363 9.08144 16.0254 9.3144C16.1014 9.51024 16.1581 9.67365 16.1888 9.81445C16.2244 9.99408 16.2244 10.13 16.2454 10.219C16.265 10.2951 16.294 10.4471 16.362 10.667C16.4301 10.887 16.5302 11.1703 16.5982 11.3466C16.731 11.6994 16.7902 11.9939 16.8102 12.1509C16.8279 12.3127 16.8879 12.8726 16.8717 13.0408L16.872 13.0406Z" fill="#A88F33"/>
<path fill-rule="evenodd" clip-rule="evenodd" d="M13.6044 2.28846L13.5962 2.30787C13.5962 2.30787 13.6205 2.31598 13.6157 2.34841C13.616 2.39277 13.6133 2.43711 13.6076 2.4811C13.5996 2.53774 13.5833 2.58137 13.5801 2.61699C13.5801 2.69305 13.5914 2.78041 13.4841 2.99726C13.4521 3.0571 13.4324 3.10883 13.4162 3.14446C13.3758 3.23182 13.3677 3.24483 13.332 3.28526C13.3887 3.25326 13.5926 3.12526 13.6961 3.14446C13.6249 3.18489 13.5165 3.26425 13.4485 3.36782C13.4647 3.37102 13.5327 3.38403 13.6405 3.36782C13.8201 3.3403 14.0208 3.27555 14.1971 3.28846C14.3897 3.29977 14.3137 3.0571 14.3137 3.0571L14.0914 2.56846L13.6707 2.27246L13.6044 2.28857V2.28846Z" fill="#BE9C44"/>
<path fill-rule="evenodd" clip-rule="evenodd" d="M14.7009 5.94787C14.7009 5.94787 14.5132 5.76014 14.4371 5.11587C14.3611 4.46862 14.3773 3.51587 14.3773 3.51587L14.2252 3.14371C14.2252 3.14371 14.1932 2.89614 14.1135 2.80398C14.0338 2.71182 13.8774 2.55641 13.8061 2.48035C13.7349 2.4043 13.654 2.30073 13.6055 2.28451C13.6297 2.24409 13.7382 2.01593 14.1539 2.01273C14.5697 2.00953 14.6979 2.24089 14.7414 2.32505C14.7848 2.40921 14.9808 2.77305 15.0536 3.46638C15.1215 4.15886 15.1248 4.2107 15.1135 4.45017C15.1054 4.58286 15.0617 4.89027 14.9855 5.2187C14.916 5.4971 14.8399 5.80782 14.7007 5.94851L14.7009 5.94787Z" fill="#A17C34"/>
<path fill-rule="evenodd" clip-rule="evenodd" d="M14.112 6.50062C14.1746 6.50514 14.2371 6.49103 14.2916 6.46009C14.3515 6.45689 14.5683 6.48441 14.7349 6.27246C14.7463 6.32089 14.7755 6.45209 14.6993 6.56857C14.7399 6.52803 14.7997 6.51193 14.8078 6.50062C14.811 6.56046 14.8676 6.74489 14.6282 7.1931C14.6928 7.12195 14.7689 7.12515 14.8368 7.11705C14.8401 7.20121 14.8853 7.4843 14.7657 7.63651C14.6864 7.74009 14.5569 7.70766 14.5569 7.70766C14.5588 7.68505 14.5588 7.66232 14.5569 7.63971C14.5537 7.59598 14.5375 7.55235 14.5489 7.52323C14.4864 7.49465 14.4294 7.45518 14.3806 7.40665C14.2398 7.27395 14.057 7.0475 14.0441 6.87918C14.0279 6.69145 14.1962 6.65102 14.1962 6.65102C14.1821 6.63841 14.1701 6.62365 14.1605 6.60729C14.1524 6.57987 14.1443 6.53614 14.112 6.50062V6.50062Z" fill="#8C6228"/>
<path fill-rule="evenodd" clip-rule="evenodd" d="M12.8642 4.46395C12.8642 4.46395 12.8561 4.45264 12.8125 4.50437C12.8206 4.45264 12.8287 4.404 12.8319 4.35707C12.8526 4.31362 12.8793 4.27332 12.9113 4.23739C12.887 4.28581 12.8707 4.32955 12.8707 4.32955C12.8707 4.32955 12.9307 4.21787 13.018 4.14992C13.0779 4.10139 13.1539 4.07877 13.1863 4.03344C13.2219 3.98491 13.2138 3.9768 13.2219 3.96869C13.2219 3.96869 13.3012 3.91696 13.4226 3.76475C13.4387 3.74533 13.4631 3.72432 13.4793 3.70491C13.5067 3.6936 13.5714 3.66448 13.6475 3.62555C13.7268 3.58192 13.8158 3.52208 13.8708 3.49755C13.9792 3.44901 14.0942 3.45392 14.1475 3.37776C14.188 3.36645 14.2316 3.24507 14.2236 3.1416C14.2834 3.16581 14.5908 3.35675 14.6961 3.77424C14.7722 4.07035 14.6362 4.52667 14.5795 4.74683C14.5229 4.96699 14.5149 5.1303 14.4355 5.23056C14.3352 5.36336 14.0116 5.55056 13.9323 5.64325C13.8643 5.71931 13.6605 5.91184 13.6685 6.05094C13.6766 6.15451 13.8044 6.21094 13.832 6.23056C13.8596 6.25019 13.8594 6.2743 13.9113 6.26256C13.9631 6.25083 13.9824 6.22694 14.0035 6.22694C14.0278 6.23014 14.0278 6.23504 14.0391 6.23504C14.0473 6.2348 14.0554 6.23369 14.0634 6.23174C14.0634 6.23174 14.0553 6.37904 13.7106 6.42374C13.6863 6.42704 13.6621 6.43504 13.6313 6.43995C13.6718 6.42054 13.696 6.42054 13.7398 6.3607C13.6912 6.35259 13.552 6.34448 13.5164 6.33318C13.5277 6.31376 13.5649 6.26192 13.5956 6.23771C13.6232 6.2135 13.5924 6.20571 13.5682 6.2183C13.5265 6.24666 13.4865 6.27743 13.4484 6.31046C13.408 6.34608 13.3724 6.39462 13.3076 6.43846C13.2882 6.37371 13.2914 6.25072 13.3676 6.16176C13.3481 6.16496 13.3108 6.2216 13.2753 6.2103C13.2689 6.15127 13.2727 6.09159 13.2866 6.03387C13.306 5.96101 13.4112 5.83323 13.4112 5.83323L13.9193 4.92539L14.0276 4.23771L12.8642 4.46373V4.46395Z" fill="#92723A"/>
<path fill-rule="evenodd" clip-rule="evenodd" d="M12.8374 4.50278C12.8374 4.50278 12.8099 4.52219 12.8649 4.55942C12.8568 4.57072 12.8374 4.61115 12.8131 4.63867C12.7857 4.67067 12.7565 4.69051 12.7451 4.71803C12.7209 4.77467 12.7015 4.8135 12.7015 4.83782C12.7015 4.86214 12.6934 5.01744 12.6255 5.11771C12.6011 5.15334 12.5736 5.21318 12.5542 5.2536C12.5138 5.32475 12.4782 5.3816 12.4701 5.4136C12.4539 5.47024 12.4426 5.62555 12.4426 5.62555C12.4426 5.62555 12.4783 5.58182 12.4912 5.56571C12.4717 5.60614 12.4506 5.64976 12.4199 5.68219C12.4393 5.66598 12.496 5.62555 12.5914 5.54139C12.7241 5.42982 12.9313 5.24208 13.1838 5.09339C13.1076 5.12091 13.043 5.12091 12.9912 5.12902C13.0317 5.08859 13.3957 4.66139 13.5866 4.62096C13.5982 4.60626 13.604 4.58781 13.6029 4.56912L13.4393 4.55302L13.1076 4.62416L13.0592 4.36816L12.8374 4.50246V4.50278Z" fill="#B18E3E"/>
<path fill-rule="evenodd" clip-rule="evenodd" d="M13.3631 5.95954C13.3631 5.95954 13.3194 6.00317 13.279 6.11165C13.2478 6.07915 13.2212 6.04267 13.1996 6.00317C13.1398 5.9029 13.0476 5.77501 12.8324 5.84786C12.8292 5.77991 12.8242 5.74429 12.8324 5.69575C12.868 5.68775 12.9764 5.60039 13.0847 5.4725C13.1609 5.38514 13.232 5.28477 13.2806 5.15698C13.3126 5.13266 13.3679 5.09223 13.4406 5.0453C13.5441 4.97415 13.6687 4.87698 13.6881 4.76861C13.6396 4.78802 13.536 4.83655 13.3806 4.82855C13.4406 4.80103 13.5327 4.77191 13.5214 4.65213C13.5457 4.63591 13.5651 4.62461 13.5651 4.62461C13.5469 4.61852 13.5277 4.61578 13.5085 4.6165C13.5052 4.60519 13.5004 4.58909 13.4729 4.59709C13.4454 4.60509 13.4409 4.60519 13.4373 4.6165C13.4259 4.61981 13.3887 4.6165 13.3612 4.63602C13.3337 4.65554 13.2576 4.72007 13.2285 4.73138C13.2398 4.71197 13.2559 4.68295 13.2559 4.68295C13.2559 4.68295 13.1767 4.69095 13.12 4.71495C13.0165 4.75058 12.8968 4.81533 12.7754 4.87837C12.7867 4.85895 12.7916 4.84637 12.7996 4.84274C12.8076 4.83911 12.8271 4.83474 12.8271 4.83143C12.8271 4.82813 12.8191 4.79943 12.8239 4.78781C12.8602 4.71093 12.903 4.6373 12.9519 4.56775C13.0086 4.49159 13.0199 4.38322 13.0199 4.38322L13.2674 4.25863L13.9632 4.09863L14.4148 4.12615L14.3581 4.43847L14.0914 4.98375L13.8633 5.4805L13.6027 5.78482L13.3632 5.95954H13.3631Z" fill="#543E26"/>
<path fill-rule="evenodd" clip-rule="evenodd" d="M14.4916 4.60841C14.4916 4.60841 14.2198 4.94494 14.1437 4.99678C14.1922 4.89321 14.4916 4.27668 14.6 4.10516C14.5758 4.08574 14.5434 4.08574 14.6194 3.78516C14.5548 3.93716 14.5321 4.01652 14.4787 4.05694C14.4254 4.09737 14.4188 4.08446 14.3827 4.08446C14.3896 4.07215 14.3923 4.05802 14.3907 4.04404C14.3907 4.04404 14.1626 4.01652 14.0067 4.01652C13.8509 4.01652 13.5424 4.10068 13.3708 4.16862C13.2349 4.22526 13.1588 4.22526 13.1103 4.26078C13.0618 4.30121 13.0343 4.34494 13.0099 4.35625C12.9905 4.36756 12.8984 4.39668 12.8772 4.4274C12.8578 4.4594 12.8255 4.49534 12.8255 4.50345C12.8255 4.51156 12.8174 4.52297 12.8417 4.51476C12.8497 4.51156 12.9097 4.47913 12.9776 4.4387C13.0698 4.38697 13.1815 4.32713 13.2624 4.2915C13.4938 4.19924 13.5666 4.21545 13.6701 4.19604C13.7785 4.17662 13.9339 4.13129 14.0374 4.13129C14.1409 4.12809 14.3368 4.13129 14.3821 4.1394C14.3627 4.15561 14.3465 4.17502 14.3546 4.24297C14.3546 4.26238 14.3384 4.2834 14.3226 4.33033C14.2742 4.46302 14.1819 4.68308 14.1306 4.79476C14.0594 4.94676 13.9786 5.07465 13.9386 5.1539C13.8986 5.23316 13.8106 5.4419 13.7234 5.55358C13.6363 5.66526 13.5907 5.73321 13.5634 5.75753C13.5361 5.78185 13.3401 5.92574 13.3547 5.97758C13.3903 5.96628 13.6153 5.88158 13.7786 5.69769C13.9419 5.5138 13.9744 5.40158 14.1022 5.30121C14.23 5.20084 14.3304 5.03262 14.3902 4.89353C14.4403 4.76404 14.429 4.72361 14.4921 4.60873L14.4916 4.60841Z" fill="#806031"/>
<path fill-rule="evenodd" clip-rule="evenodd" d="M8.63368 7.12005C8.63368 7.12005 8.59805 7.26725 8.51709 7.3401C8.43784 7.41135 8.29704 7.47279 8.28093 7.59258C8.26152 7.71226 8.42173 7.77221 8.42173 7.77221C8.42173 7.77221 8.33426 7.91621 8.33426 8.02458C8.33426 8.13626 8.33106 8.15727 8.34237 8.26405C8.32954 8.2723 8.31862 8.28321 8.31037 8.29605C8.31037 8.29605 8.31837 8.39962 8.39773 8.46426C8.47709 8.5289 8.54493 8.56783 8.58536 8.55162C8.59153 8.56481 8.59694 8.57834 8.60157 8.59215C8.60157 8.59215 8.66152 8.44005 8.70194 8.30735C8.74237 8.17146 8.778 8.19077 8.7941 8.00794C8.81021 7.82511 8.9861 7.51119 8.9861 7.51119L9.1061 7.24293L8.91037 7.09082L8.63368 7.11994V7.12005Z" fill="#B6903C"/>
<path fill-rule="evenodd" clip-rule="evenodd" d="M8.99745 7.38379C8.95709 7.42522 8.91983 7.46957 8.88598 7.51648C8.83425 7.58774 8.79382 7.65238 8.71777 7.68C8.64172 7.70763 8.59318 7.70742 8.59798 7.78358C8.60278 7.85974 8.67404 7.89195 8.71446 7.93078C8.7582 7.9712 8.79382 8.03915 8.77441 8.11531C8.79862 8.104 8.84236 8.09099 8.88278 8.00363C8.92321 7.91627 9.20598 7.3839 9.20598 7.3839H8.99745V7.38379Z" fill="#685026"/>
<path fill-rule="evenodd" clip-rule="evenodd" d="M10.1116 6.15526C10.1116 6.15526 10.1358 6.09062 10.1116 6.04369C10.0872 5.99515 9.94003 5.97894 9.86718 5.9239C9.79113 5.86726 9.69886 5.8279 9.62281 5.85275C9.63411 5.82523 9.67945 5.76529 9.64222 5.75238C9.60659 5.74107 9.47401 5.80091 9.43838 5.82843C9.40275 5.85595 9.32179 5.88827 9.30569 5.90779C9.28958 5.92731 9.26195 5.96444 9.24574 5.94822C9.22953 5.93692 9.22153 5.90779 9.19401 5.9239C9.16649 5.94001 9.03401 6.04849 9.00958 6.11163C8.98515 6.17478 8.93022 6.31558 8.76521 6.47569C8.60019 6.63579 8.52894 6.73947 8.57747 6.79931C8.62601 6.85915 8.64873 6.81553 8.65683 6.86726C8.66307 6.91805 8.66032 6.96953 8.64873 7.01937C8.62931 7.10353 8.59699 7.18278 8.64062 7.19899C8.7523 7.23462 8.86078 7.16699 8.88499 7.18769C8.93353 7.23131 8.85747 7.38833 8.97235 7.41905C9.08894 7.45105 9.20382 7.39153 9.20382 7.39153L9.62771 7.16337L10.0355 6.94822L10.2441 6.53553L10.1322 6.19089L10.1109 6.15526H10.1116Z" fill="#D4B968"/>
<path fill-rule="evenodd" clip-rule="evenodd" d="M9.71291 7.14114C9.71291 7.14114 9.64165 7.03277 9.72912 6.9372C9.81659 6.84162 9.94107 6.8013 9.9896 6.74146C9.98036 6.73007 9.96797 6.72165 9.95397 6.71725C9.98619 6.6596 10.0353 6.61324 10.0948 6.58445C10.0706 6.56024 10.0381 6.54082 10.0026 6.54082C9.92325 6.54082 9.87461 6.58936 9.80187 6.58936C9.73072 6.58936 9.72261 6.55373 9.72261 6.55373C9.72261 6.55373 9.8424 6.54242 9.83099 6.48898C9.81968 6.43234 9.79899 6.43234 9.79899 6.43234C9.79899 6.43234 10.0303 6.33634 10.0708 6.28514C10.1112 6.23394 10.1064 6.17346 10.1145 6.14925C10.1419 6.14925 10.3021 6.06509 10.3669 6.10072C10.4316 6.13634 10.3863 6.23341 10.3863 6.23341C10.3863 6.23341 10.5822 6.0861 10.6821 5.94168C10.7694 5.94978 10.8101 5.88184 10.8741 5.88184C10.9534 5.88184 11.078 5.99021 11.1022 6.22157C11.1185 6.35426 11.1427 6.43032 11.1185 6.66498C11.1071 6.79768 11.1103 7.08098 11.1505 7.22157C11.1779 7.33325 11.2426 7.32194 11.2426 7.32194C11.2327 7.35597 11.213 7.38635 11.186 7.4093C11.1422 7.44973 11.1374 7.55661 11.1422 7.59704C11.1487 7.62659 11.1568 7.65576 11.1666 7.6844C11.1666 7.6844 11.1148 7.74424 11.1018 7.78477C11.0905 7.8252 11.0372 7.85272 10.9982 7.85272C10.9593 7.85272 10.9788 7.84941 10.9271 7.85272C10.8754 7.85602 10.8591 7.86402 10.8267 7.85272C10.7943 7.84141 10.7701 7.8284 10.7831 7.72472C10.7944 7.62114 10.3834 7.38008 10.3834 7.38008L9.71141 7.14061L9.71291 7.14114Z" fill="#CCA849"/>
<path fill-rule="evenodd" clip-rule="evenodd" d="M8.93999 8.16354C8.93999 8.16354 9.08719 8.35938 9.69241 8.35938C9.98041 8.35938 10.0808 8.33186 10.1404 8.31564C10.2052 8.29943 10.4478 8.20407 10.6922 7.91596C10.9123 7.65548 10.8637 7.54871 10.8637 7.54871L10.7357 7.5293L10.3197 7.58594L9.08879 8.1102L8.93945 8.16354H8.93999Z" fill="#585136"/>
<path fill-rule="evenodd" clip-rule="evenodd" d="M9.39145 8.21196C9.39145 8.21196 8.86719 8.32855 8.86719 7.99681C8.86719 7.67319 9.19081 7.33335 9.27177 7.27351C9.35593 7.21356 9.55657 7.14551 9.55657 7.14551H10.0404L10.1326 7.38988L10.0921 7.91735L9.39145 8.21185V8.21196Z" fill="#252211"/>
<path fill-rule="evenodd" clip-rule="evenodd" d="M9.87597 7.24389C9.87597 7.24389 9.7757 7.15162 9.54754 7.27589C9.31938 7.40015 9.13485 7.65989 9.12354 7.89573C9.11224 8.10437 9.29506 8.25978 9.57986 8.26789C9.79181 8.27589 9.9197 8.25167 9.98445 8.23589C9.96824 8.21647 9.88408 8.1113 9.88408 8.1113L9.87608 7.24399L9.87597 7.24389Z" fill="#C3B378"/>
<path fill-rule="evenodd" clip-rule="evenodd" d="M9.77792 7.29587C9.77792 7.29587 9.75371 7.27646 9.68192 7.31528C9.62208 7.34728 9.53472 7.43187 9.46678 7.49171C9.42304 7.52734 9.39552 7.54344 9.37078 7.57096C9.2704 7.69075 9.18624 7.88659 9.23488 7.98366C9.28352 8.08072 9.44363 8.1924 9.85142 8.11635L9.77675 7.29598L9.77792 7.29587Z" fill="#E6D89C"/>
<path fill-rule="evenodd" clip-rule="evenodd" d="M9.64464 7.49684C9.64464 7.49684 9.5799 7.59722 9.5799 7.75743C9.5799 7.92084 9.67216 8.18132 10.012 8.20074C10.2725 8.21695 10.4472 7.82537 10.6365 7.67327C10.7805 7.55679 10.8679 7.55348 10.8679 7.55348C10.8679 7.55348 10.7207 7.39348 10.3275 7.18623C9.93915 6.97748 9.50384 6.94996 9.26758 7.27039C9.37926 7.26228 9.74011 7.17001 9.74011 7.17001L9.91654 7.22665L9.64464 7.49695V7.49684Z" fill="#252211"/>
<path fill-rule="evenodd" clip-rule="evenodd" d="M10.1528 7.70815C10.1415 7.68394 10.1334 7.65151 10.1804 7.64351C10.2273 7.63551 10.2483 7.64021 10.2645 7.67551C10.2807 7.71082 10.2965 7.74026 10.2725 7.75487C10.2483 7.76778 10.1852 7.75487 10.1527 7.70794L10.1528 7.70815ZM10.0768 7.47999C10.0768 7.47999 10.0606 7.4913 10.0687 7.46869C10.0719 7.44127 10.093 7.39263 10.1447 7.40405C10.1965 7.41546 10.1853 7.47199 10.1767 7.48821C10.1682 7.50442 10.125 7.53183 10.0926 7.52021C10.0885 7.51916 10.0847 7.51715 10.0815 7.51435C10.0783 7.51156 10.0758 7.50805 10.0742 7.50411C10.0726 7.50017 10.072 7.49591 10.0724 7.49169C10.0727 7.48746 10.0741 7.48338 10.0764 7.47978L10.0768 7.47999Z" fill="#6F674D"/>
<path fill-rule="evenodd" clip-rule="evenodd" d="M5.69531 7.58419C5.69531 7.58419 5.82331 7.68019 5.97201 7.67646C6.11921 7.67315 6.30854 7.52115 6.3959 7.42398C6.44763 7.36734 6.4919 7.3075 6.5399 7.26056C6.58043 7.22014 6.60785 7.20072 6.62726 7.1732C6.65478 7.1412 6.6839 7.08104 6.69851 7.06152C6.66289 7.08904 6.61115 7.13768 6.55771 7.17C6.50598 7.202 6.3943 7.26216 6.34897 7.27838C6.30534 7.29459 5.85222 7.53438 5.85222 7.53438L5.69531 7.58419Z" fill="#AC924C"/>
<path fill-rule="evenodd" clip-rule="evenodd" d="M5.89258 6.38893C5.89258 6.38893 5.96372 6.3404 6.10132 6.30957C6.23402 6.27757 6.501 6.25293 6.501 6.25293L6.72106 6.34893L6.80842 6.68066L6.64842 7.02541L6.44458 7.15341L6.21311 6.78125L5.89311 6.38957L5.89258 6.38893Z" fill="#9F8E57"/>
<path fill-rule="evenodd" clip-rule="evenodd" d="M5.6035 6.68414L5.52734 6.74099C5.52734 6.74099 5.54686 6.70536 5.56297 6.59699C5.57908 6.48862 5.66334 6.22483 5.78633 6.07272C5.90932 5.92062 5.90612 5.92872 5.90612 5.92872C5.8948 5.92665 5.88317 5.92702 5.87201 5.9298C5.86084 5.93257 5.8504 5.9377 5.84137 5.94483C5.85758 5.90899 5.96116 5.78099 6.06473 5.71699C6.1683 5.65299 6.20873 5.63283 6.3171 5.68499C6.42548 5.73715 6.453 5.76424 6.53236 5.76104C6.61172 5.75784 6.67956 5.67368 6.67956 5.67368C6.67956 5.67368 6.69577 5.72542 6.63593 5.8452C6.57609 5.96499 6.33982 6.20926 6.33982 6.20926L5.84788 6.54579L5.6035 6.68446V6.68414Z" fill="#EAC970"/>
<path fill-rule="evenodd" clip-rule="evenodd" d="M5.96722 6.34787C5.96722 6.34787 6.32328 6.3964 6.43165 6.29613C6.43485 6.30744 6.44786 6.30744 6.44786 6.31555C6.44699 6.32166 6.44415 6.32731 6.43976 6.33165C6.45155 6.32977 6.46345 6.3287 6.47538 6.32845C6.48963 6.33269 6.50429 6.33541 6.51912 6.33656C6.53106 6.3363 6.54296 6.3352 6.55474 6.33325C6.55362 6.3413 6.55089 6.34903 6.54671 6.35599C6.54253 6.36296 6.53699 6.36901 6.53042 6.37379C6.54664 6.37379 6.56242 6.37699 6.56242 6.38989C6.56242 6.4028 6.56562 6.44173 6.54621 6.44984C6.53013 6.45429 6.51301 6.45312 6.49768 6.44653C6.49896 6.47717 6.50728 6.5071 6.522 6.534C6.554 6.59384 6.62226 6.662 6.714 6.64237C6.714 6.64237 6.76242 6.75885 6.55858 7.01773C6.53117 7.05336 6.50194 7.10189 6.46642 7.14232C6.45239 7.17291 6.44166 7.20491 6.43442 7.23779C6.43442 7.23779 6.77917 7.10509 6.87784 6.80248C6.97821 6.49827 6.99762 6.19896 6.97821 5.91907C6.9749 5.83971 6.962 5.78317 6.94258 5.74264C6.89405 5.64227 6.75805 5.65848 6.70312 5.71512C6.62376 5.79448 6.49106 5.99181 6.30664 6.12771C6.1189 6.2636 6.1109 6.28771 5.9668 6.34787H5.96722Z" fill="#D7BC6B"/>
<path fill-rule="evenodd" clip-rule="evenodd" d="M5.54135 6.78479C5.54135 6.78479 5.4734 6.82522 5.43778 6.97679C5.40215 7.1321 5.46978 7.32143 5.50892 7.38127C5.54807 7.44111 5.63692 7.60463 5.82124 7.61274C5.86686 7.6125 5.91198 7.60314 5.95394 7.58522C6.01828 7.55571 6.07863 7.51819 6.13356 7.47354C6.21292 7.4137 6.27756 7.36197 6.26946 7.35706C6.25004 7.34895 5.78082 6.96058 5.78082 6.96058L5.60439 6.76367L5.54124 6.78501L5.54135 6.78479Z" fill="#585136"/>
<path fill-rule="evenodd" clip-rule="evenodd" d="M5.98431 7.42819C5.98431 7.42819 6.07978 7.42019 6.13642 7.38456C6.19306 7.34893 5.80469 6.96387 5.80469 6.96387L5.83221 7.37987L5.98431 7.42819Z" fill="#453A25"/>
<path fill-rule="evenodd" clip-rule="evenodd" d="M5.57162 6.75602C5.57162 6.75602 5.52309 6.84829 5.52309 6.87261C5.51498 6.95186 5.5393 7.20104 5.55871 7.28029C5.57813 7.36445 5.6833 7.49224 5.8193 7.49224C5.90335 7.49224 6.01994 7.4405 6.01994 7.4276C6.01994 7.41138 5.90015 7.3956 5.86783 7.33533C5.84842 7.30333 5.84031 7.22376 5.83583 7.14333C5.83263 7.0916 5.83263 7.03496 5.85205 7.01533C5.89578 6.9668 5.90378 6.8276 5.90378 6.8276L6.05909 6.53906H5.85482L5.61045 6.69117L5.57162 6.75602Z" fill="#84754B"/>
<path fill-rule="evenodd" clip-rule="evenodd" d="M5.51172 6.84478C5.51172 6.84478 5.67172 6.63284 5.81593 6.5842C5.96015 6.53556 6.02468 6.56478 6.02468 6.56478L5.94052 6.78004L5.82073 6.91273L5.82884 6.98068C5.82884 6.98068 5.80932 7.1603 5.92911 7.28489C6.04889 7.40948 6.13785 7.40468 6.18969 7.40468C6.24153 7.40468 6.39033 7.36094 6.46639 7.18132C6.53433 7.0131 6.59097 6.79732 6.45508 6.581C6.32228 6.36574 6.08772 6.35742 6.04239 6.35742C5.99705 6.35742 5.64111 6.37523 5.51172 6.84446V6.84478Z" fill="#252211"/>
<path fill-rule="evenodd" clip-rule="evenodd" d="M9.62117 7.56486C9.56133 7.53734 9.61797 7.36912 9.67781 7.31728C9.73765 7.26544 9.8137 7.20571 9.9465 7.1975C9.99493 7.1943 10.0419 7.22502 10.0339 7.25744C10.0226 7.31728 9.9384 7.40144 9.86234 7.46128C9.75717 7.54384 9.68911 7.59558 9.62117 7.56486Z" fill="#F7F7E7"/>
<path fill-rule="evenodd" clip-rule="evenodd" d="M6.38287 6.64766C6.4266 6.64446 6.48324 6.67966 6.49455 6.72702C6.50586 6.77876 6.46703 6.88233 6.38287 6.88233C6.31492 6.88233 6.2793 6.79817 6.2793 6.77396C6.28006 6.75405 6.28562 6.73462 6.29551 6.71732C6.29871 6.71241 6.30682 6.65577 6.38287 6.64766V6.64766Z" fill="#F8F6DE"/>
<path fill-rule="evenodd" clip-rule="evenodd" d="M5.75144 6.68457C5.75144 6.68457 5.63976 6.7363 5.58802 6.84457C5.55106 6.92452 5.53988 7.01398 5.55602 7.10057C5.56413 7.141 5.60456 7.24126 5.63208 7.27689C5.6596 7.31252 5.69682 7.33684 5.72434 7.33353C5.75186 7.33022 5.8084 7.25748 5.8084 7.21385C5.8084 7.17022 5.8117 6.98569 5.86504 6.88532C5.91197 6.78505 5.75176 6.68468 5.75176 6.68468L5.75144 6.68457Z" fill="#D4C38B"/>
<path fill-rule="evenodd" clip-rule="evenodd" d="M5.76959 6.67612C5.75018 6.68743 5.71786 6.70364 5.72586 6.72466C5.73396 6.74407 5.80191 6.75666 5.82623 6.80402C5.85375 6.85255 5.85375 6.90428 5.84564 6.9286C5.86678 6.91856 5.88596 6.90484 5.90228 6.88807C5.93791 6.84764 5.98154 6.79271 6.01876 6.79271C6.04308 6.79271 6.0673 6.80402 6.09002 6.80402C6.12564 6.80402 6.16116 6.79271 6.16607 6.75548C6.17407 6.70695 6.09812 6.66322 6.05439 6.67132C6.0625 6.63932 6.0738 6.59207 6.03818 6.55964C6.00255 6.52722 5.89098 6.58396 5.86666 6.60018C5.84234 6.61639 5.76959 6.67623 5.76959 6.67623V6.67612Z" fill="#E2D59D"/>
<path fill-rule="evenodd" clip-rule="evenodd" d="M8.33949 10.0766L8.57896 10.0059L8.6469 10.0544C8.6469 10.0544 8.69533 10.158 8.77149 10.1709C8.74717 10.2226 8.68402 10.2669 8.68733 10.3036C8.69064 10.3403 8.72296 10.3683 8.72296 10.3683C8.72296 10.3683 8.5077 10.7243 8.9317 11.083C8.83133 11.1234 8.70354 11.179 8.6356 11.211C8.68402 11.2223 8.7876 11.243 8.83133 11.2822C8.87506 11.3215 8.87506 11.334 8.91549 11.3583C8.95592 11.3826 8.98013 11.4149 8.97213 11.4294C8.94461 11.4132 8.85234 11.3648 8.83624 11.41C8.82013 11.4552 8.43656 11.4375 8.43656 11.4375L7.7893 11.5621C7.7893 11.5621 7.81352 11.4974 7.74557 11.4375C7.66632 11.3664 7.56925 11.4407 7.46568 11.3615C7.32978 11.2579 7.32488 11.1381 7.28125 11.0929C7.32488 11.0654 7.41394 11.025 7.62589 10.9969C7.61778 10.9807 7.59026 10.9322 7.60648 10.8885C7.62589 10.8319 7.70674 10.7963 7.68253 10.7285C7.71816 10.7204 7.73426 10.7204 7.82333 10.6087C7.90749 10.4971 7.95922 10.4728 8.02397 10.4647C8.08872 10.4566 8.12754 10.4647 8.24733 10.3531C8.33138 10.2738 8.30397 10.2059 8.30397 10.2059C8.30397 10.2059 8.3589 10.188 8.3396 10.0764L8.33949 10.0766Z" fill="#CBAC5A"/>
<path fill-rule="evenodd" clip-rule="evenodd" d="M7.63221 10.1117C7.63541 10.0955 7.64842 10.0874 7.73578 10.0955C7.82314 10.1036 8.37653 10.0438 8.52704 10.0357C8.67914 10.0244 9.21472 10.0324 9.4753 10.0874C9.73589 10.1424 9.99957 10.2072 10.1274 10.2395C10.2554 10.2751 10.2957 10.2879 10.2908 10.3042C10.2876 10.3204 10.2588 10.3362 10.2422 10.3317C10.2261 10.3285 9.80213 10.199 9.67114 10.1717C9.54016 10.1444 9.08693 10.0713 8.83914 10.0757C8.60778 10.079 8.51552 10.0725 8.31978 10.0951C8.12394 10.1194 7.80032 10.1517 7.70325 10.1388C7.60725 10.1275 7.62709 10.1275 7.632 10.1113L7.63221 10.1117Z" fill="#D6BC6F"/>
<path fill-rule="evenodd" clip-rule="evenodd" d="M8.9345 11.38C8.9345 11.38 9.26623 11.5596 9.38602 11.7796C9.47338 11.943 9.33428 12.024 9.33428 12.024C9.33428 12.024 9.52202 12.024 9.4977 12.1276C9.48639 12.1922 9.17407 12.3669 8.96532 12.4592C8.75338 12.5515 8.76148 12.5467 8.65791 12.5628C8.55754 12.579 8.28244 12.5308 8.2258 12.6113C8.16916 12.6918 8.1938 12.7748 8.20959 12.7877C8.2258 12.799 8.3569 12.8153 8.3569 12.8153C8.3569 12.8153 8.32938 12.8913 8.05759 12.8994C7.7858 12.9075 7.71775 12.9268 7.70154 12.9561C7.68532 12.9835 7.75327 12.9674 7.87796 12.9881C8.00255 13.0075 8.17727 13.0201 8.17727 13.0201C8.17727 13.0201 8.12063 13.0686 7.97343 13.1074C7.80511 13.151 7.54132 13.1916 7.46207 13.2401C7.5025 13.2676 7.56244 13.3081 7.59007 13.3113C7.52212 13.3275 7.42655 13.3631 7.41044 13.376C7.43466 13.3922 7.46708 13.4116 7.46708 13.4116C7.46708 13.4116 7.33108 13.575 7.25183 13.6156C7.17258 13.6561 6.71626 13.868 6.55924 13.8275C6.16767 13.724 6.11914 13.2952 6.02367 13.2628C5.87967 13.2143 5.81172 13.3113 5.68383 13.2433C5.74047 13.2029 5.7713 13.1787 5.83114 13.1512C5.76639 13.1192 5.43146 12.9068 5.43146 12.9068C5.39643 12.8304 5.35756 12.7559 5.31498 12.6835C5.25023 12.5718 5.15498 12.4229 5.08351 12.2918C4.9282 12.0038 4.9201 11.8712 4.7793 11.7077C4.80362 11.6757 4.88767 11.6802 4.88767 11.6802L6.0674 12.0686L8.15924 12.1292L8.70324 11.3525L8.9346 11.3801L8.9345 11.38Z" fill="#DFC677"/>
<path fill-rule="evenodd" clip-rule="evenodd" d="M5.83594 12.5647C5.84856 12.5787 5.86328 12.5907 5.87956 12.6003C5.9201 12.6278 5.97994 12.6602 6.02036 12.7087C6.03658 12.6845 6.077 12.6407 6.14836 12.7087C6.21972 12.7766 6.30836 12.7282 6.36351 12.7443C6.42015 12.7638 6.42335 12.7718 6.42335 12.7718C6.42335 12.7718 6.45535 12.7443 6.52692 12.7152C6.57066 12.699 6.62239 12.6877 6.67903 12.6715C6.73076 12.6602 6.7874 12.644 6.82634 12.644C6.86196 12.6682 6.98975 12.804 7.50271 12.6036C7.98655 12.4159 8.09812 12.3949 8.17908 12.4239C8.18719 12.4045 8.1953 12.3672 8.31988 12.3721C8.31988 12.3204 8.21631 12.144 8.21631 12.144L7.64511 11.9482H7.33268L6.39583 12.1198L5.87668 12.416L5.83626 12.5653L5.83594 12.5647Z" fill="#C4A859"/>
<path fill-rule="evenodd" clip-rule="evenodd" d="M5.52344 12.2366C5.52344 12.2366 5.53474 12.324 5.66424 12.4162C5.79224 12.5084 5.83245 12.5634 5.83245 12.5634C5.83245 12.5634 5.85677 12.5314 5.87618 12.4988C5.8956 12.4632 5.91181 12.4227 5.94413 12.4114C6.00888 12.3839 6.15608 12.4357 6.1885 12.4275C6.21602 12.4195 6.20792 12.3629 6.23704 12.3629C6.30498 12.3596 6.34861 12.4065 6.37293 12.4065C6.39725 12.4065 6.45698 12.4033 6.46509 12.3904C6.4732 12.3775 6.4764 12.2431 6.56866 12.1784C6.66904 12.1072 6.79202 12.1379 6.82466 12.1542C6.82466 12.1784 6.82786 12.2383 6.89261 12.2415C6.95736 12.2447 6.96376 12.2334 7.02061 12.2528C7.07746 12.2722 7.1452 12.2496 7.17592 12.345C7.20344 12.337 7.26818 12.3289 7.25197 12.2366C7.28397 12.2124 7.31192 12.1962 7.37997 12.1007C7.39618 12.0765 7.4236 12.049 7.44472 12.0134C7.50136 12.0134 7.5693 12.0021 7.65986 12.0813C7.63234 12.1007 7.61613 12.1133 7.60813 12.133C7.63182 12.1565 7.65344 12.1819 7.67277 12.2091C7.69709 12.2411 7.7133 12.2803 7.74402 12.2885C7.81197 12.3079 7.92365 12.2803 8.04824 12.2885C8.16802 12.2966 8.26829 12.3402 8.31202 12.3677C8.32824 12.3597 8.32824 12.3564 8.36866 12.3645C8.40909 12.3726 8.43981 12.3758 8.39618 12.3241C8.4204 12.3354 8.44792 12.3597 8.47224 12.3354C8.49656 12.3111 8.51586 12.2755 8.58381 12.2674C8.65176 12.2593 8.67608 12.2706 8.7036 12.1995C8.73922 12.1121 8.61624 12.1121 8.61624 12.1121C8.61624 12.1121 8.67288 12.0603 8.73602 11.9923C8.81208 11.9212 8.89944 11.8289 8.92045 11.7157C8.95608 11.5069 8.75224 11.4795 8.75224 11.4795L7.76354 11.7837L6.5548 11.7238L5.52408 12.2367L5.52344 12.2366Z" fill="#927D49"/>
<path fill-rule="evenodd" clip-rule="evenodd" d="M4.63703 9.38015C4.63703 9.38015 4.60503 9.42058 4.58529 9.51605C4.56556 9.61151 4.57399 9.60021 4.55777 9.66815C4.54156 9.7361 4.34241 10.4125 4.41708 10.6406C4.49175 10.8688 4.62103 10.953 4.70188 11.1374C4.71809 11.1778 4.73388 11.2021 4.74231 11.2378C4.76983 11.3574 4.74561 11.4497 4.77793 11.5695C4.78924 11.6099 4.81847 11.6568 4.86209 11.7054C4.95809 11.8056 5.11457 11.9011 5.18209 11.9691C5.27745 12.0694 5.41345 12.2734 5.58657 12.2927C5.67884 12.304 5.80993 12.2652 5.9183 12.2005C6.0143 12.1406 6.07361 12.0565 6.1743 12.0085C6.24545 11.9729 6.3215 11.96 6.38945 11.9438C6.53025 11.9163 6.65814 11.9118 6.7342 11.9276C6.85068 11.9519 7.12577 12.036 7.2782 12.036C7.39731 12.0341 7.51574 12.0178 7.63094 11.9875C7.8623 11.9196 8.1422 11.803 8.32673 11.7512C8.43511 11.7192 8.52246 11.7108 8.61153 11.6914C8.76364 11.6558 8.89142 11.6072 8.96428 11.515C8.91574 11.4583 8.8559 11.371 8.53217 11.3742C8.16492 11.3823 7.74092 11.5861 7.53217 11.6186C7.32342 11.651 7.23287 11.6784 6.9998 11.5942C6.77132 11.5092 6.76375 11.453 6.76375 11.453C6.76375 11.453 6.52385 11.2852 6.42348 10.8575C6.3231 10.4298 6.42348 10.1181 6.68407 9.82186C6.75201 9.74581 6.7358 9.67786 6.7358 9.67786C6.7358 9.67786 6.90732 9.4465 6.86039 9.22986C6.80865 9.01461 6.47692 9.05834 6.47692 9.05834L4.63713 9.38015H4.63703Z" fill="#6E6342"/>
<path fill-rule="evenodd" clip-rule="evenodd" d="M4.91221 10.1006C4.89795 10.1274 4.89124 10.1576 4.8928 10.1879C4.896 10.2316 4.90901 10.2882 5.04 10.4161C5.15168 10.5277 5.12736 10.6523 5.12736 10.6523C5.12736 10.6523 5.18357 10.6636 5.33611 10.5922C5.45589 10.5356 5.49611 10.6359 5.49611 10.6359C5.53098 10.6177 5.56877 10.6056 5.60779 10.6003C5.64314 10.5971 5.67735 10.5861 5.70805 10.5683C5.70805 10.5683 5.84885 10.7123 5.97184 10.7803C6.08352 10.8402 6.14827 10.8806 6.20331 10.8402C6.25504 10.8046 6.25504 10.7317 6.25173 10.6994C6.2389 10.6696 6.22265 10.6413 6.20331 10.6153C6.16768 10.5635 6.11104 10.5036 6.10731 10.4553C6.0992 10.3437 6.19147 10.2109 6.17195 10.1786C6.15243 10.1462 6.07979 10.1381 5.90016 10.2029C5.71413 10.2643 4.91147 10.1009 4.91147 10.1009L4.91221 10.1006Z" fill="#39331F"/>
<path fill-rule="evenodd" clip-rule="evenodd" d="M5.33624 10.8239C5.33624 10.8239 5.24408 10.7366 5.2764 10.3126C5.31553 10.312 5.3546 10.3158 5.39288 10.3239C5.39288 10.3239 5.44312 10.6524 5.33624 10.8239Z" fill="#292311"/>
<path fill-rule="evenodd" clip-rule="evenodd" d="M4.67981 9.05687C4.69267 9.04735 4.7046 9.03664 4.71543 9.02487C4.68343 9.08471 4.5357 9.32418 4.65549 9.70124C4.77527 10.0766 5.07618 10.3565 5.44674 10.3695C5.8173 10.3825 6.01207 10.2012 6.23479 9.9294C6.32215 9.82103 6.42253 9.68503 6.51149 9.59287C6.64418 9.44876 6.74775 9.40834 6.74775 9.26924C6.74775 8.98444 6.45645 8.85655 6.02765 8.72876C5.59885 8.60098 5.21207 8.61676 5.01143 8.70423C4.8157 8.79959 4.73154 8.89996 4.6797 9.05698L4.67981 9.05687Z" fill="#252211"/>
<path fill-rule="evenodd" clip-rule="evenodd" d="M6.05696 10.9514L6.08896 10.9352C6.08896 10.9352 6.09696 10.8072 6.1488 10.8106C6.20053 10.8187 6.22485 10.8868 6.21995 10.911C6.21675 10.9352 6.20384 10.9757 6.152 10.9708C6.08405 10.9724 6.05664 10.9514 6.05664 10.9514H6.05696Z" fill="#3F3824"/>
<path fill-rule="evenodd" clip-rule="evenodd" d="M5.91211 10.4078C5.91211 10.4078 5.94411 10.3965 5.98326 10.4353C6.01526 10.4353 6.15478 10.4191 6.19851 10.4466C6.24224 10.4741 6.25515 10.4983 6.25515 10.4983C6.25515 10.4983 6.09174 10.534 6.00267 10.4983C5.91211 10.4676 5.91211 10.4078 5.91211 10.4078V10.4078Z" fill="#2D2815"/>
<path fill-rule="evenodd" clip-rule="evenodd" d="M6.632 10.4321C6.632 10.424 6.54464 10.3641 6.45237 10.3446C6.43616 10.3414 6.43285 10.3527 6.42037 10.3527C6.41226 10.3495 6.40906 10.3252 6.40906 10.3252L6.35658 10.3528C6.35658 10.3528 6.34848 10.3641 6.376 10.3848C6.40021 10.4042 6.44074 10.4204 6.45205 10.4528C6.46336 10.4851 6.46336 10.4964 6.46826 10.5013C6.47146 10.5045 6.5281 10.5013 6.55562 10.4851C6.58314 10.4689 6.63498 10.4424 6.63168 10.4318L6.632 10.4321Z" fill="#82764F"/>
<path fill-rule="evenodd" clip-rule="evenodd" d="M5.81445 10.7605C5.81445 10.7605 5.83056 10.6489 5.93904 10.644C6.05061 10.6359 6.07173 10.7443 6.07173 10.7443L6.00699 10.809C6.00699 10.8074 5.95845 10.7395 5.81499 10.7605H5.81445Z" fill="#2D2816"/>
<path fill-rule="evenodd" clip-rule="evenodd" d="M6.51978 10.28C6.51978 10.28 6.45984 10.3447 6.32725 10.3641C6.31594 10.3479 6.29162 10.3156 6.32725 10.2639C6.36288 10.2121 6.4033 10.1959 6.44373 10.212C6.46157 10.2149 6.47821 10.2229 6.49168 10.2349C6.50516 10.2469 6.51491 10.2626 6.51978 10.28V10.28Z" fill="#574F35"/>
<path fill-rule="evenodd" clip-rule="evenodd" d="M6.76374 10.3592C6.76705 10.343 6.75574 10.3398 6.76374 10.3317C6.77174 10.3236 6.81558 10.3075 6.82369 10.3155C6.82689 10.3188 6.82369 10.3317 6.82369 10.3475C6.82369 10.3632 6.82369 10.3795 6.81558 10.3911C6.80427 10.4073 6.77195 10.4154 6.75574 10.4106C6.73953 10.4058 6.73633 10.3831 6.73633 10.3786C6.74433 10.3754 6.76374 10.3673 6.76374 10.3592ZM7.04001 10.1845C7.04001 10.1764 7.06753 10.1602 7.08374 10.1602C7.10795 10.1602 7.10795 10.1796 7.11126 10.1845C7.11926 10.1877 7.11926 10.1812 7.12737 10.1958C7.13547 10.2104 7.14689 10.2362 7.13867 10.2524C7.13046 10.2686 7.09825 10.2798 7.09025 10.2766C7.07894 10.2685 7.04331 10.1958 7.04001 10.1845V10.1845Z" fill="#82764F"/>
<path fill-rule="evenodd" clip-rule="evenodd" d="M6.48438 10.3966C6.48438 10.3966 6.52 10.4046 6.56854 10.4451C6.55232 10.4564 6.528 10.4693 6.528 10.4693C6.528 10.4693 6.5248 10.4321 6.48438 10.3965V10.3966Z" fill="#6E6342"/>
<path fill-rule="evenodd" clip-rule="evenodd" d="M6.40558 10.0402C6.39747 10.0322 6.42979 10.0128 6.4492 10.016C6.46862 10.0192 6.47672 10.0322 6.49774 10.0354C6.51875 10.0386 6.52206 10.0273 6.52974 10.0192C6.53742 10.0111 6.56536 10.016 6.57016 10.0192C6.57315 10.0228 6.57586 10.0266 6.57827 10.0305C6.57861 10.0244 6.58021 10.0184 6.58298 10.0129C6.58576 10.0074 6.58963 10.0025 6.59438 9.99854C6.60058 9.99398 6.60774 9.99088 6.61531 9.98948C6.62289 9.98807 6.63068 9.9884 6.63811 9.99043C6.64131 10.0017 6.65752 10.0422 6.65432 10.0503C6.65112 10.0584 6.60259 10.0698 6.59438 10.0616C6.60248 10.0811 6.63811 10.1215 6.64291 10.1295C6.64771 10.1375 6.60728 10.157 6.59118 10.1538C6.56856 10.1522 6.42936 10.0713 6.40515 10.0406L6.40558 10.0402ZM6.61752 9.77166C6.61453 9.76351 6.6088 9.75664 6.60131 9.75224C6.59 9.74904 6.55278 9.75224 6.55278 9.77166C6.55278 9.79107 6.58478 9.89966 6.62072 9.95619C6.66126 10.0128 6.68867 10.0597 6.71619 10.0727C6.72483 10.0766 6.73464 10.0771 6.74365 10.0741C6.75265 10.0711 6.76018 10.0648 6.76472 10.0565C6.76792 10.0484 6.77603 9.98851 6.77283 9.84771C6.76963 9.70691 6.76472 9.57102 6.75662 9.56291C6.74851 9.5548 6.71619 9.55491 6.70488 9.57102C6.69358 9.58712 6.62072 9.74744 6.61742 9.77166H6.61752Z" fill="#585136"/>
<path fill-rule="evenodd" clip-rule="evenodd" d="M6.47275 10.5999C6.47275 10.5999 6.41611 10.5643 6.36107 10.5886C6.30934 10.6129 6.31254 10.7084 6.31254 10.7084C6.32418 10.7129 6.33675 10.7146 6.34917 10.7131C6.36159 10.7117 6.37347 10.7073 6.38379 10.7003C6.41942 10.676 6.46465 10.6356 6.47275 10.6V10.5999Z" fill="#574F35"/>
<path fill-rule="evenodd" clip-rule="evenodd" d="M6.58083 10.7286C6.57763 10.6966 6.54883 10.6966 6.54883 10.68C6.55081 10.6721 6.55539 10.6651 6.56183 10.6601C6.56827 10.6551 6.5762 10.6525 6.58435 10.6525C6.60056 10.6525 6.61635 10.6719 6.63619 10.6845C6.6556 10.6958 6.68472 10.7165 6.68792 10.7411C6.69112 10.7658 6.65592 10.8333 6.61677 10.8333C6.57763 10.8333 6.58926 10.7605 6.58115 10.7281L6.58083 10.7286ZM6.89315 10.6848C6.89315 10.6848 6.8284 10.7042 6.8332 10.6848C6.838 10.6654 6.85272 10.6606 6.87374 10.6606C6.88441 10.6494 6.89877 10.6425 6.91416 10.6411C6.92296 10.6407 6.93161 10.6436 6.93838 10.6492C6.93838 10.6492 6.98211 10.6298 6.99502 10.6411C7.00792 10.6524 6.99832 10.6524 7.00632 10.6654C7.01651 10.6799 7.02319 10.6965 7.02584 10.7139C7.02584 10.7269 6.97731 10.7544 6.93838 10.7496C6.89315 10.7399 6.90115 10.6929 6.89315 10.6848V10.6848ZM7.27011 10.612C7.27011 10.612 7.28952 10.6233 7.27341 10.6363C7.26211 10.6476 7.20547 10.6683 7.15683 10.6719C7.10829 10.6719 7.06467 10.6799 7.06467 10.6638C7.06467 10.6477 7.10509 10.6153 7.12931 10.6072C7.13416 10.6011 7.14033 10.5962 7.14735 10.5928C7.15437 10.5895 7.16206 10.5877 7.16984 10.5878C7.18926 10.5878 7.2652 10.5797 7.28632 10.5765C7.30574 10.5731 7.32195 10.5845 7.31053 10.6007C7.30573 10.612 7.27011 10.612 7.27011 10.612V10.612ZM7.38179 10.1123C7.38179 10.1123 7.35747 10.1641 7.33005 10.1641C7.30253 10.1609 7.30253 10.1528 7.30253 10.1447C7.30253 10.1334 7.33005 10.1042 7.32675 10.0961C7.31875 10.0961 7.29923 10.0961 7.30253 10.0767C7.30253 10.0605 7.33005 10.0411 7.35427 10.0447C7.37256 10.0297 7.39534 10.0212 7.41902 10.0205C7.44654 10.0205 7.47075 10.0285 7.47075 10.0447C7.47075 10.0609 7.43875 10.0965 7.42702 10.1047C7.41411 10.1176 7.3979 10.126 7.38179 10.1127V10.1123ZM7.01283 11.0686C7.01283 11.0686 6.98083 11.0719 6.98083 11.088C6.98083 11.0961 6.98883 11.0961 7.00024 11.0913C7.00682 11.091 7.01333 11.0899 7.01965 11.088C7.02285 11.0913 7.02286 11.1074 7.04718 11.1074C7.06715 11.1047 7.08639 11.0981 7.10382 11.088C7.12323 11.08 7.13944 11.0718 7.13944 11.056C7.13133 11.0285 7.11512 11.0155 7.09091 11.0155C7.0785 11.0147 7.06613 11.0175 7.05528 11.0236C7.05528 11.0236 7.04717 11.0074 7.01965 11.0236C6.99213 11.0398 6.99533 11.0398 7.00344 11.0479C7.01795 11.0608 7.01315 11.0693 7.01315 11.0693L7.01283 11.0686ZM6.83 11.2369C6.83 11.2288 6.87043 11.2126 6.88174 11.2175C6.89304 11.2207 6.92536 11.2822 6.92536 11.2887C6.92536 11.2968 6.88493 11.3162 6.86872 11.3162C6.85251 11.3162 6.8251 11.2887 6.8251 11.2842C6.8251 11.281 6.84451 11.2762 6.84451 11.2729C6.84931 11.2649 6.83 11.2454 6.83 11.2373V11.2369ZM6.702 11.0007C6.71011 10.9975 6.71011 10.9894 6.72141 10.9813C6.72495 10.9789 6.72899 10.9774 6.7332 10.9768C6.73742 10.9763 6.74171 10.9767 6.74574 10.9781C6.74859 10.973 6.75254 10.9686 6.7573 10.9652C6.76206 10.9618 6.76751 10.9595 6.77325 10.9585C6.79267 10.9553 6.80888 10.9585 6.80525 10.9666C6.80525 10.991 6.82147 11.0071 6.82147 11.0265C6.82147 11.0459 6.81016 11.0702 6.76974 11.0864C6.72931 11.0977 6.67427 11.0977 6.66616 11.0945C6.65805 11.0913 6.64995 11.0589 6.65805 11.0427C6.66616 11.0265 6.68878 11.0088 6.70179 11.0007H6.702Z" fill="#82764F"/>
<path fill-rule="evenodd" clip-rule="evenodd" d="M6.75148 11.0117C6.75148 11.0117 6.72396 11.0279 6.72396 11.036C6.72152 11.0439 6.72044 11.0521 6.72076 11.0603C6.72076 11.0651 6.75639 11.0571 6.76119 11.0521C6.76279 11.0489 6.75148 11.0201 6.75148 11.0117Z" fill="#6E6342"/>
<path fill-rule="evenodd" clip-rule="evenodd" d="M6.51088 10.9352C6.52698 10.9385 6.5545 10.9352 6.57552 10.9433C6.59173 10.9514 6.60304 10.9676 6.58682 10.9871C6.57061 11.0065 6.55482 11.0356 6.51888 11.0307C6.47845 11.0275 6.43962 11.0065 6.43962 10.9903C6.43894 10.98 6.44031 10.9697 6.44364 10.96C6.44698 10.9503 6.45221 10.9413 6.45904 10.9336C6.47525 10.9207 6.48325 10.9288 6.51077 10.9352H6.51088Z" fill="#585136"/>
<path fill-rule="evenodd" clip-rule="evenodd" d="M6.49061 10.9512C6.49061 10.9512 6.43888 10.9916 6.42586 11.0111C6.40965 11.0305 6.3304 11.1308 6.30618 11.1518C6.31422 11.1376 6.32339 11.1241 6.3336 11.1114C6.3016 11.1318 6.27761 11.1627 6.26565 11.1987C6.24624 11.2587 6.37413 11.291 6.45818 11.3153C6.54224 11.3397 6.57477 11.3473 6.57477 11.3473C6.54382 11.3008 6.51726 11.2515 6.49541 11.2001C6.46341 11.1241 6.44688 11.116 6.46789 11.0803C6.4841 11.0447 6.50842 11.0205 6.50842 10.993C6.49872 10.9674 6.49061 10.9512 6.49061 10.9512Z" fill="#574F35"/>
<path fill-rule="evenodd" clip-rule="evenodd" d="M4.6467 11.0794C4.65847 11.0816 4.67055 11.0816 4.68232 11.0794C4.70654 11.0761 4.95902 10.9834 5.2228 11C5.42028 11.012 5.61601 11.0441 5.80691 11.096C6.13864 11.1834 6.55123 11.3565 6.81822 11.4553C6.88936 11.4827 6.95902 11.5314 7.01022 11.5507C7.21416 11.63 7.22216 11.63 7.34195 11.651C7.48275 11.6704 7.62675 11.6235 7.77726 11.5912C7.96168 11.5507 8.2772 11.5312 8.5539 11.4908C8.64337 11.4784 8.73162 11.4584 8.81768 11.431C8.81768 11.431 8.59763 11.651 8.07006 11.7303C7.85681 11.7627 7.64011 11.7654 7.42611 11.7384C7.25779 11.7222 7.14622 11.6979 7.06206 11.6736C6.96659 11.6461 6.77075 11.5733 6.52968 11.5136C6.36136 11.4699 6.17363 11.4376 5.95848 11.3972C5.42771 11.3 4.85171 11.1884 4.64648 11.08L4.6467 11.0794Z" fill="#252211"/>
<path fill-rule="evenodd" clip-rule="evenodd" d="M4.05219 10.0791C3.92419 10.1875 3.7884 10.291 3.65581 10.3913L3.25613 10.6984C3.12024 10.7987 2.98755 10.9022 2.85155 11.0026C2.71555 11.103 2.57976 11.1984 2.43555 11.2906C2.56355 11.1822 2.69933 11.0819 2.83523 10.9832C2.97112 10.8845 3.11203 10.7878 3.24312 10.6877L3.6428 10.3802C3.78029 10.28 3.91299 10.1764 4.05219 10.0793V10.0791ZM3.34509 11.2118C3.34509 11.2118 3.48909 11.092 3.66872 10.9238C3.89197 10.7152 4.16547 10.4481 4.25283 10.3996L3.34499 11.2119L3.34509 11.2118Z" fill="#CFB66C"/>
<path fill-rule="evenodd" clip-rule="evenodd" d="M3.3457 11.2121C3.41696 11.1409 3.49301 11.0714 3.56906 11.0033L3.68554 10.903C3.72117 10.871 3.7617 10.8351 3.79722 10.7995C3.86837 10.7283 3.93802 10.6522 4.00917 10.5794C4.04443 10.5428 4.08172 10.5083 4.12085 10.4758C4.14041 10.4585 4.16214 10.4438 4.18549 10.4321C4.20501 10.4208 4.22602 10.4001 4.25344 10.3965C4.23733 10.4208 4.21792 10.4321 4.2017 10.4531C4.18229 10.4693 4.16608 10.4888 4.14997 10.5049C4.11434 10.5405 4.07392 10.5728 4.03829 10.6052C3.96224 10.67 3.88298 10.7332 3.80693 10.801C3.73088 10.8687 3.65973 10.9418 3.58357 11.0097C3.50112 11.0794 3.42506 11.1473 3.3457 11.2124V11.2121ZM4.31338 10.5648C4.31338 10.5648 3.78592 11.0811 3.67744 11.1651L4.31338 10.5648Z" fill="#CFB66C"/>
<path fill-rule="evenodd" clip-rule="evenodd" d="M4.31368 10.5645C4.26623 10.6194 4.21536 10.6713 4.16136 10.7198L4.00136 10.8719C3.94963 10.9236 3.90099 10.9754 3.84605 11.0272C3.78941 11.0757 3.73768 11.1232 3.67773 11.168L3.83304 11.0159C3.88488 10.9641 3.94152 10.9205 3.99656 10.8687L4.15187 10.7166C4.2052 10.6632 4.25704 10.6114 4.31368 10.5645V10.5645ZM4.33789 10.8443C4.28927 10.98 4.23198 11.1125 4.16637 11.2408C4.03048 11.5127 3.82664 11.8525 3.73757 12.0257L4.33789 10.8443Z" fill="#CFB66C"/>
<path fill-rule="evenodd" clip-rule="evenodd" d="M4.337 10.8447C4.337 10.9046 4.32079 10.9564 4.30137 11.0081C4.28245 11.0599 4.26088 11.1107 4.23673 11.1602C4.21241 11.2088 4.18489 11.2606 4.15737 11.3076C4.12985 11.3545 4.09753 11.4029 4.07321 11.4516L3.9098 11.7396C3.85316 11.8356 3.79812 11.9321 3.73828 12.0244C3.77871 11.9208 3.83375 11.8237 3.88559 11.7282C3.94223 11.6322 3.99396 11.5362 4.04559 11.4369C4.07079 11.3875 4.09347 11.3367 4.11353 11.2849C4.13775 11.2331 4.16196 11.1846 4.18148 11.1376C4.20569 11.0859 4.22511 11.0373 4.24943 10.9904C4.27684 10.9402 4.29956 10.8917 4.33679 10.8447H4.337Z" fill="#CFB66C"/>
<path fill-rule="evenodd" clip-rule="evenodd" d="M4.9127 12.1719C4.9127 12.1719 4.7527 12.3838 4.7687 12.6524C4.81233 12.5117 4.86737 12.2965 4.9127 12.1719ZM5.06481 12.3844C5.06481 12.3844 5.00817 12.9604 4.96124 13.2436C5.02758 12.9162 5.04049 12.9437 5.06481 12.3844ZM6.12465 13.2776C6.12465 13.2776 5.88518 13.9816 5.88028 14.1772C5.93212 13.976 6.03238 13.565 6.12465 13.277V13.2776Z" fill="#DEC270"/>
<path fill-rule="evenodd" clip-rule="evenodd" d="M6.68555 12.1279C6.68555 12.1279 7.07392 12.7687 7.36523 13.3156C7.2864 13.0404 7.10507 12.5356 6.68555 12.1279Z" fill="#CBAF59"/>
<path fill-rule="evenodd" clip-rule="evenodd" d="M7.72852 13.0713C7.94175 13.4482 8.13404 13.8366 8.30452 14.2347C8.2722 13.9596 8.18473 13.4888 7.72852 13.0713Z" fill="#E3C677"/>
<path fill-rule="evenodd" clip-rule="evenodd" d="M10.7953 14.0158C10.8599 13.9754 10.9878 13.7552 11.0995 13.7003C11.2111 13.6437 11.2953 13.6323 11.3956 13.5207C11.4959 13.4041 11.5236 13.3329 11.7435 13.2408C12.051 13.108 11.8395 12.9365 11.8395 12.9365C11.8733 12.9032 11.9096 12.8724 11.9478 12.8443C12.0272 12.7845 12.1194 12.7116 12.1114 12.5837C12.1001 12.3686 12.0596 12.0562 11.8832 11.875C12.0547 11.8394 12.3831 11.8152 12.5872 11.7634C12.8234 11.7035 12.9318 11.6193 12.9318 11.6193C12.9318 11.6193 12.7959 11.388 13.016 11.155C13.2361 10.9221 13.4157 10.7829 13.5484 10.5223C13.3963 10.5029 13.1644 10.422 12.5726 10.6469C12.6045 10.6619 12.6354 10.6792 12.6649 10.6986C12.6649 10.6986 12.3008 10.799 12.1681 10.9106C11.9366 11.1064 11.9075 11.2666 11.6567 11.3864C11.406 11.5062 11.1535 11.4737 10.9449 11.5708C10.7362 11.6679 10.7054 11.7504 10.6292 11.7861C10.6454 11.8055 10.626 11.8378 10.6567 11.8653C10.6373 11.8928 10.5241 12.0773 10.4092 12.0773C10.4205 12.121 10.5175 12.1533 10.5175 12.1533C10.5175 12.1533 10.4464 12.2051 10.2652 12.2181C10.3573 12.3141 10.4448 12.4187 10.6859 12.5708C10.6665 12.6112 10.5855 12.6712 10.6179 12.7472C10.6535 12.8233 10.7459 12.9269 11.1147 13.011C10.9269 13.019 10.707 13.0627 10.4107 13.0223C10.1146 12.9867 10.066 12.9657 9.8832 13.011C9.90261 13.0304 9.95434 13.0304 9.99968 13.0822C9.95114 13.0854 9.64693 13.0465 9.54336 13.1825C9.43498 13.3232 9.38805 13.5547 9.39616 13.71C9.33952 13.7375 9.28448 13.7861 9.312 13.8864C9.33952 13.9868 9.48352 14.0191 9.57578 14.0822C9.66794 14.1501 9.67605 14.1743 9.76352 14.1582C9.85568 14.1388 9.99157 14.0466 10.0709 14.0466C10.1503 14.0466 10.2068 14.1065 10.2068 14.1065C10.2068 14.1065 10.4221 14.0029 10.4431 14.0223C10.4625 14.0417 10.4463 14.1663 10.4673 14.1857C10.4886 14.2003 10.7311 14.0563 10.7958 14.0158H10.7953Z" fill="#ECD592"/>
<path fill-rule="evenodd" clip-rule="evenodd" d="M15.4996 7.54078C14.4883 4.92915 11.9883 4.44531 11.9883 4.44531H4.85558L4.8831 7.10547H6.30358V13.0456H4.85547V15.701H11.7908C13.4623 15.701 14.8021 14.0213 14.8021 14.0213C16.9477 10.9761 15.4996 7.54078 15.4996 7.54078ZM11.8281 12.2317C11.8281 12.2317 11.2841 13.0165 10.6922 13.0165H9.50816L9.48011 7.11198H10.9996C10.9996 7.11198 11.7036 7.25918 12.1954 8.65235C12.1954 8.65235 12.8475 10.647 11.8281 12.2317Z" fill="white" fill-opacity="0.8"/>
</g>
<defs>
<clipPath id="clip0_2412_821">
<rect width="20" height="20" fill="white"/>
</clipPath>
</defs>
</svg>
