<svg width="20" height="20" viewBox="0 0 20 20" fill="none" xmlns="http://www.w3.org/2000/svg">
<rect width="20" height="20" rx="10" fill="#6FBCF0"/>
<g clip-path="url(#clip0_2160_34844)">
<path fill-rule="evenodd" clip-rule="evenodd" d="M6.24636 13.9592C7.02535 15.3046 8.42067 16.1078 9.97867 16.1078C11.5367 16.1078 12.9317 15.3046 13.711 13.9592C14.49 12.6139 14.49 11.0077 13.711 9.66222L10.4283 3.99323C10.2285 3.64809 9.72885 3.64809 9.52901 3.99323L6.24636 9.66222C5.46736 11.0074 5.46736 12.6137 6.24636 13.9592ZM9.05395 6.69022L9.75382 5.4815C9.85376 5.30892 10.1036 5.30892 10.2035 5.4815L12.896 10.1315C13.3907 10.9858 13.4836 11.9745 13.1746 12.8793C13.1424 12.7317 13.0975 12.5806 13.0368 12.4281C12.6649 11.4923 11.824 10.7701 10.5369 10.2815C9.65201 9.94686 9.08718 9.45463 8.85766 8.81845C8.56204 7.99847 8.87081 7.10432 9.05395 6.69022ZM7.86051 8.75129L7.0613 10.1315C6.45232 11.1832 6.45232 12.4387 7.0613 13.4904C7.67028 14.542 8.76072 15.1696 9.97867 15.1696C10.7876 15.1696 11.5405 14.8925 12.1334 14.3983C12.2107 14.2042 12.4501 13.4937 12.1543 12.7615C11.8811 12.0853 11.2236 11.5456 10.2 11.1568C9.04296 10.7191 8.29125 10.036 7.96619 9.12674C7.92142 9.00157 7.88663 8.87611 7.86051 8.75129Z" fill="white"/>
</g>
<defs>
<clipPath id="clip0_2160_34844">
<rect width="8.63061" height="12.6582" fill="white" transform="translate(5.69629 3.73438)"/>
</clipPath>
</defs>
</svg>
